<?xml version="1.0" encoding="UTF-8"?>
<svg width="144px" height="20px" viewBox="0 0 144 20" version="1.1" xmlns="http://www.w3.org/2000/svg" xmlns:xlink="http://www.w3.org/1999/xlink">
    <!-- Generator: Sketch 48 (47235) - http://www.bohemiancoding.com/sketch -->
    <title>Tablet 7″</title>
    <desc>Created with Sketch.</desc>
    <defs></defs>
    <g id="Page-1" stroke="none" stroke-width="1" fill="none" fill-rule="evenodd">
        <g id="Tablet-7″" fill="#FFFFFF">
            <g id="logo">
                <path d="M19.146288,20 C29.7178561,20 38.2890173,15.5227484 38.2890173,10.0018937 C38.2890173,4.47362192 29.7178561,0 19.146288,0 C8.57487455,0 0,4.47362192 0,10.0018937 C0,15.5227484 8.57487455,20 19.146288,20 M22.7490009,15.095081 C22.4299632,15.8502059 21.881472,17.4627172 20.6159968,18.1042183 C20.2359984,18.2943804 19.7628571,18.3912762 19.3364419,18.4005871 C19.2431443,18.4057948 19.1749116,18.4040589 19.1498466,18.4040589 C15.6153663,18.4040589 12.3281325,17.9049032 9.57144204,17.0495684 C9.54993562,17.0404154 9.48897496,17.0145344 9.46731381,17.0074329 C9.21295006,16.9196901 9.08391151,16.8025944 9.08391151,16.6545678 C9.08391151,16.5248473 9.14843078,16.4279515 9.24157372,16.3384727 C9.27746933,16.2979153 9.33827527,16.2450487 9.41377984,16.1809775 C10.048142,15.638266 11.9660819,14.224912 15.5723534,12.8170814 C16.8376739,12.3236069 18.4221868,11.7092493 20.0747776,11.3511765 C21.0461253,11.1427083 24.648993,10.5832689 22.7490009,15.095081 M32.4242617,5.01081004 C32.488781,4.89008474 32.581924,4.78782331 32.7432995,4.77693437 C32.8328838,4.77314691 32.9548051,4.79524042 33.1449591,4.91028453 C35.3888992,6.32348068 36.7260109,8.08591223 36.7260109,9.99810627 C36.7260109,13.4478514 32.3741317,16.4096454 26.1617147,17.7057459 C25.7602098,17.7825998 25.4984194,17.7825998 25.4052765,17.6801805 C25.3444705,17.6142156 25.3300813,17.5065886 25.4052765,17.3711869 C25.4447307,17.3000142 25.4913022,17.2357852 25.5702106,17.1390471 C28.9578593,13.0675273 31.5352264,7.06014171 32.2664448,5.32895671 C32.3238469,5.20649549 32.3776903,5.08971547 32.4242617,5.01081004 M15.5974185,4.88298326 C15.9164562,4.12959427 16.468506,2.51566273 17.7304226,1.87747566 C18.1138249,1.68194802 18.5835623,1.59041773 19.0065736,1.57763505 C19.1032751,1.57574132 19.1715077,1.57763505 19.2001314,1.57763505 C22.7310531,1.57763505 26.0184416,2.07679076 28.7749773,2.93212555 C28.7964838,2.94159421 28.861003,2.96700175 28.8789508,2.97078921 C29.1334693,3.05853204 29.2625079,3.17909953 29.2625079,3.32507457 C29.2625079,3.45684662 29.1979886,3.55011283 29.1084043,3.64353686 C29.0653914,3.68377862 29.011548,3.73475153 28.9326395,3.80071646 C28.2982774,4.3439014 26.3840509,5.75488819 22.774066,7.16082504 C21.5087455,7.6563511 19.9277912,8.26865719 18.2716418,8.62893935 C17.3001394,8.83898559 13.6974264,9.39858286 15.5974185,4.88298326 M12.1273027,2.28873073 C12.5252489,2.21029874 12.790598,2.21187684 12.8837409,2.31413827 C12.9445468,2.37820948 12.958936,2.48630991 12.8837409,2.62328972 C12.840728,2.69446242 12.7977152,2.75869143 12.7188067,2.85542948 C9.33115803,6.92489782 6.75379096,12.9321256 6.01885918,14.6655199 C5.96517048,14.7860874 5.90776844,14.9050768 5.86475559,14.981615 C5.80023632,15.1042341 5.70709339,15.2047596 5.54571784,15.2156485 C5.45613353,15.219436 5.33421221,15.1995518 5.14405828,15.0840343 C2.89655954,13.6689444 1.56300649,11.9103003 1.56300649,9.99810627 C1.56300649,6.54836113 5.91132706,3.58498903 12.1273027,2.28873073" id="Fill-1"></path>
                <polygon id="Fill-4" points="55.6075431 3.33333333 55.6075431 8.72976381 49.2713936 8.72976381 49.2713936 3.33333333 45.7803468 3.33333333 45.7803468 17.5 49.2713936 17.5 49.2713936 11.8023508 55.6075431 11.8023508 55.6075431 17.5 59.0982659 17.5 59.0982659 3.33333333 58.9219962 3.33333333"></polygon>
                <polygon id="Fill-6" points="71.7758443 3.33333333 68.2580842 8.94382467 64.7365751 3.33333333 60.7630058 3.33333333 66.5751203 12.5947516 66.5751203 17.5 69.9410481 17.5 69.9410481 12.5947516 75.7456647 3.33333333 75.4421564 3.33333333"></polygon>
                <path d="M87.2364619,3.33333333 L87.2364619,13.7166934 C87.2364619,14.1117984 86.9322792,14.4327332 86.4968296,14.4327332 L80.898215,14.4327332 L80.898215,3.33333333 L77.4104046,3.33333333 L77.4104046,17.5 L87.7245803,17.5 C88.644421,17.5 89.380326,17.2352405 89.9211132,16.7202739 C90.4541217,16.2001436 90.7283237,15.4875463 90.7283237,14.6048582 L90.7283237,3.33333333 L90.5479532,3.33333333 L87.2364619,3.33333333 Z" id="Fill-8"></path>
                <path d="M103.547189,3.33333333 L93.2254335,3.33333333 L93.2254335,17.5 L96.7170137,17.5 L96.7170137,6.40060014 L102.3191,6.40060014 C102.766385,6.40060014 103.055014,6.74125108 103.055014,7.11116327 L103.055014,17.5 L106.543353,17.5 L106.543353,6.23207415 C106.543353,5.34547413 106.273037,4.63318974 105.740022,4.11634543 C105.19939,3.59621509 104.463476,3.33333333 103.547189,3.33333333" id="Fill-10"></path>
                <path d="M119.358365,3.33333333 L109.040462,3.33333333 L109.040462,17.5 L119.358365,17.5 C120.278206,17.5 121.014111,17.2352405 121.551171,16.7202739 C122.088069,16.2018648 122.358382,15.4913017 122.358382,14.6048582 L122.358382,6.23207415 C122.358382,5.34547413 122.088069,4.63318974 121.547444,4.11634543 C121.010546,3.59621509 120.274641,3.33333333 119.358365,3.33333333 M118.866196,7.13651258 L118.866196,13.7004197 C118.866196,14.0809724 118.57757,14.4327332 118.122998,14.4327332 L112.532324,14.4327332 L112.532324,6.40060014 L118.104361,6.40060014 C118.558448,6.40060014 118.866196,6.71230279 118.866196,7.13651258" id="Fill-12"></path>
                <path d="M127.856311,3.33333333 C126.940114,3.33333333 126.200122,3.59621509 125.663242,4.11822315 C125.129767,4.63678872 124.855491,5.34750833 124.855491,6.23207415 L124.855491,17.5 L128.34456,17.5 L128.34456,13.1184809 L134.68418,13.1184809 L134.68418,17.5 L138.17341,17.5 L138.17341,3.33333333 L138.00061,3.33333333 L127.856311,3.33333333 Z M134.68418,6.40060014 L134.68418,10.0494928 L128.34456,10.0494928 L128.34456,7.1219602 C128.34456,6.77223357 128.622564,6.40060014 129.08439,6.40060014 L134.68418,6.40060014 Z" id="Fill-14"></path>
                <polygon id="Fill-16" points="143.83539 3.33333333 140.67052 3.33333333 140.67052 17.5 144 17.5 144 3.33333333"></polygon>
            </g>
        </g>
    </g>
</svg>