<?xml version="1.0" encoding="UTF-8"?>
<svg width="800px" height="800px" viewBox="0 0 800 800" version="1.1" xmlns="http://www.w3.org/2000/svg" xmlns:xlink="http://www.w3.org/1999/xlink">
    <!-- Generator: Sketch 50.2 (55047) - http://www.bohemiancoding.com/sketch -->
    <title>Slice</title>
    <desc>Created with Sketch.</desc>
    <defs>
        <polygon id="path-1" points="9.72344828 8.99986154 9.72344828 0.321092308 0.0122068966 0.321092308 0.0122068966 8.99986154"></polygon>
        <polygon id="path-3" points="9.72344828 8.99986154 9.72344828 0.321092308 0.0122068966 0.321092308 0.0122068966 8.99986154"></polygon>
        <polygon id="path-5" points="14.9778947 14.6901187 14.9778947 0.0328380612 0.495473684 0.0328380612 0.495473684 14.6901187"></polygon>
        <polygon id="path-7" points="14.9778947 14.6901187 14.9778947 0.0328380612 0.495473684 0.0328380612 0.495473684 14.6901187"></polygon>
        <rect id="path-9" x="0" y="0" width="40" height="40"></rect>
        <rect id="path-11" x="0" y="0" width="40" height="40"></rect>
        <rect id="path-13" x="0" y="0" width="40" height="40"></rect>
        <rect id="path-15" x="0" y="0" width="20" height="20"></rect>
        <rect id="path-17" x="0" y="0" width="20" height="20"></rect>
        <rect id="path-19" x="0" y="0" width="20" height="20"></rect>
        <rect id="path-21" x="0" y="0" width="20" height="20"></rect>
    </defs>
    <g id="Page-1" stroke="none" stroke-width="1" fill="none" fill-rule="evenodd">
        <g id="icon_all" transform="translate(2.000000, 0.000000)">
            <g id="슬라이드-이전/다음-버튼_기본" fill-rule="nonzero">
                <g id="슬라이드-이전-버튼_오버" transform="translate(0.000000, 80.000000)">
                    <rect id="Rectangle-23-Copy-2" fill="#35719E" opacity="0.900758605" x="0" y="0" width="40" height="80"></rect>
                    <polygon id="Page-1-Copy-2" fill="#FFFFFF" transform="translate(17.500000, 40.250000) scale(-1, 1) rotate(-180.000000) translate(-17.500000, -40.250000) " points="30 16 6.15901639 38.6762161 5 39.8389831 6.15901639 41.001339 30 64.5 30 62.1748771 7.31844262 39.8389831 30 18.3251229"></polygon>
                </g>
                <g id="슬라이드-이전-버튼_기본">
                    <rect id="Rectangle-23" fill="#000000" opacity="0.5" x="0" y="0" width="40" height="80"></rect>
                    <polygon id="Page-1" fill="#FFFFFF" transform="translate(17.500000, 40.250000) scale(-1, 1) rotate(-180.000000) translate(-17.500000, -40.250000) " points="30 16 6.15901639 38.6762161 5 39.8389831 6.15901639 41.001339 30 64.5 30 62.1748771 7.31844262 39.8389831 30 18.3251229"></polygon>
                </g>
                <g id="슬라이드-다음-버튼_기본" transform="translate(60.000000, 40.000000) scale(-1, 1) translate(-60.000000, -40.000000) translate(40.000000, 0.000000)">
                    <rect id="Rectangle-23" fill="#000000" opacity="0.5" x="0" y="0" width="40" height="80"></rect>
                    <polygon id="Page-1" fill="#FFFFFF" transform="translate(17.500000, 40.250000) scale(-1, 1) rotate(-180.000000) translate(-17.500000, -40.250000) " points="30 16 6.15901639 38.6762161 5 39.8389831 6.15901639 41.001339 30 64.5 30 62.1748771 7.31844262 39.8389831 30 18.3251229"></polygon>
                </g>
                <g id="슬라이드-다음-버튼_오버" transform="translate(60.000000, 120.000000) scale(-1, 1) translate(-60.000000, -120.000000) translate(40.000000, 80.000000)">
                    <rect id="Rectangle-23-Copy" fill="#35719E" opacity="0.900758605" x="0" y="0" width="40" height="80"></rect>
                    <polygon id="Page-1-Copy" fill="#FFFFFF" transform="translate(17.500000, 40.250000) scale(-1, 1) rotate(-180.000000) translate(-17.500000, -40.250000) " points="30 16 6.15901639 38.6762161 5 39.8389831 6.15901639 41.001339 30 64.5 30 62.1748771 7.31844262 39.8389831 30 18.3251229"></polygon>
                </g>
            </g>
            <g id="슬라이드-이전/다음-버튼_블랙" transform="translate(80.000000, 0.000000)" fill-rule="nonzero">
                <g id="슬라이드-이전-버튼_오버" transform="translate(0.000000, 80.000000)">
                    <rect id="Rectangle-23-Copy-2" fill="#35719E" opacity="0.900758605" x="0" y="0" width="40" height="80"></rect>
                    <polygon id="Page-1-Copy-2" fill="#222222" transform="translate(17.500000, 40.250000) scale(-1, 1) rotate(-180.000000) translate(-17.500000, -40.250000) " points="30 16 6.15901639 38.6762161 5 39.8389831 6.15901639 41.001339 30 64.5 30 62.1748771 7.31844262 39.8389831 30 18.3251229"></polygon>
                </g>
                <g id="슬라이드-이전-버튼_기본">
                    <rect id="Rectangle-23" fill="#FFFFFF" opacity="0.5" x="0" y="0" width="40" height="80"></rect>
                    <polygon id="Page-1" fill="#222222" transform="translate(17.500000, 40.250000) scale(-1, 1) rotate(-180.000000) translate(-17.500000, -40.250000) " points="30 16 6.15901639 38.6762161 5 39.8389831 6.15901639 41.001339 30 64.5 30 62.1748771 7.31844262 39.8389831 30 18.3251229"></polygon>
                </g>
                <g id="슬라이드-다음-버튼_기본" transform="translate(60.000000, 40.000000) scale(-1, 1) translate(-60.000000, -40.000000) translate(40.000000, 0.000000)">
                    <rect id="Rectangle-23" fill="#FFFFFF" opacity="0.5" x="0" y="0" width="40" height="80"></rect>
                    <polygon id="Page-1" fill="#222222" transform="translate(17.500000, 40.250000) scale(-1, 1) rotate(-180.000000) translate(-17.500000, -40.250000) " points="30 16 6.15901639 38.6762161 5 39.8389831 6.15901639 41.001339 30 64.5 30 62.1748771 7.31844262 39.8389831 30 18.3251229"></polygon>
                </g>
                <g id="슬라이드-다음-버튼_오버" transform="translate(60.000000, 120.000000) scale(-1, 1) translate(-60.000000, -120.000000) translate(40.000000, 80.000000)">
                    <rect id="Rectangle-23-Copy" fill="#35719E" opacity="0.900758605" x="0" y="0" width="40" height="80"></rect>
                    <polygon id="Page-1-Copy" fill="#222222" transform="translate(17.500000, 40.250000) scale(-1, 1) rotate(-180.000000) translate(-17.500000, -40.250000) " points="30 16 6.15901639 38.6762161 5 39.8389831 6.15901639 41.001339 30 64.5 30 62.1748771 7.31844262 39.8389831 30 18.3251229"></polygon>
                </g>
            </g>
            <g id="버튼-이전_기본" transform="translate(254.000000, 10.000000)" stroke="#000000" stroke-width="2">
                <polyline id="Page-1" points="8.4193548 0.1891107 0 8.6084655 9 17.6084655"></polyline>
            </g>
            <g id="버튼-이전_화이트" transform="translate(254.000000, 50.000000)" stroke="#FFFFFF" stroke-width="2">
                <polyline id="Page-1" points="8.4193548 0.1891107 0 8.6084655 9 17.6084655"></polyline>
            </g>
            <g id="버튼-더보기_기본" transform="translate(299.000000, 21.500000) rotate(-90.000000) translate(-299.000000, -21.500000) translate(294.500000, 12.500000)" stroke="#000000" stroke-width="2">
                <polyline id="Page-1" points="8.4193548 0.1891107 0 8.6084655 9 17.6084655"></polyline>
            </g>
            <g id="버튼-더보기_화이트" transform="translate(299.000000, 61.500000) rotate(-90.000000) translate(-299.000000, -61.500000) translate(294.500000, 52.500000)" stroke="#FFFFFF" stroke-width="2">
                <polyline id="Page-1" points="8.4193548 0.1891107 0 8.6084655 9 17.6084655"></polyline>
            </g>
            <g id="지도-바로보기_기본" transform="translate(334.000000, 10.000000)" stroke="#FFFFFF" stroke-width="2">
                <polyline id="Page-1" transform="translate(4.500000, 8.898788) scale(-1, 1) translate(-4.500000, -8.898788) " points="8.4193548 0.1891107 0 8.6084655 9 17.6084655"></polyline>
            </g>
            <g id="지도-바로보기_블랙" transform="translate(334.000000, 50.000000)" stroke="#000000" stroke-width="2">
                <polyline id="Page-1" transform="translate(4.500000, 8.898788) scale(-1, 1) translate(-4.500000, -8.898788) " points="8.4193548 0.1891107 0 8.6084655 9 17.6084655"></polyline>
            </g>
            <g id="페이지-공유하기" transform="translate(754.000000, 8.000000)" stroke="#000000" stroke-width="2">
                <g id="Page-1">
                    <polyline id="Stroke-1" points="24.1934 0.0004 33.0194 0.0004 33.0194 9.7634"></polyline>
                    <path d="M7.6797,11.7211 L17.1177,11.7211 C17.1177,11.7211 29.0197,9.8041 32.3837,0.0001" id="Stroke-3"></path>
                    <polyline id="Stroke-5" points="32.9775 14.0942 32.9775 23.8132 -0.0005 23.8132 -0.0005 0.0042 19.9875 0.0042"></polyline>
                </g>
            </g>
            <g id="페이지-공유하기_오버" transform="translate(750.000000, 40.000000)">
                <rect id="Rectangle-Copy-3" x="0" y="0" width="40" height="40"></rect>
                <g id="Page-1" transform="translate(4.000000, 8.000000)" stroke="#35719E" stroke-width="2">
                    <polyline id="Stroke-1" points="24.1934 0.0004 33.0194 0.0004 33.0194 9.7634"></polyline>
                    <path d="M7.6797,11.7211 L17.1177,11.7211 C17.1177,11.7211 29.0197,9.8041 32.3837,0.0001" id="Stroke-3"></path>
                    <polyline id="Stroke-5" points="32.9775 14.0942 32.9775 23.8132 -0.0005 23.8132 -0.0005 0.0042 19.9875 0.0042"></polyline>
                </g>
            </g>
            <g id="로케이션---홈" transform="translate(360.000000, 0.000000)">
                <rect id="Rectangle-Copy-4" x="0" y="0" width="40" height="40"></rect>
                <path d="M11,27.646 L11,13.4818 L20.32425,7 L29.6490937,13.4818 L29.6490937,27.646 L23.1249688,27.646 L23.1249688,19.5964 C23.1249688,19.3816 22.9521875,19.207 22.7390313,19.207 L18.2300938,19.207 C18.0169375,19.207 17.8441563,19.3816 17.8441563,19.5964 L17.8441563,27.6424 L11,27.646 Z" id="Fill-1" fill="#E0E0E0" fill-rule="nonzero"></path>
            </g>
            <g id="로케이션---홈_오버" transform="translate(360.000000, 40.000000)">
                <rect id="Rectangle-Copy-4" x="0" y="0" width="40" height="40"></rect>
                <path d="M11,27.646 L11,13.4818 L20.32425,7 L29.6490937,13.4818 L29.6490937,27.646 L23.1249688,27.646 L23.1249688,19.5964 C23.1249688,19.3816 22.9521875,19.207 22.7390313,19.207 L18.2300938,19.207 C18.0169375,19.207 17.8441563,19.3816 17.8441563,19.5964 L17.8441563,27.6424 L11,27.646 Z" id="Fill-1" fill="#35719E" fill-rule="nonzero"></path>
            </g>
            <g id="gnb상단-아웃링크_기본" transform="translate(403.000000, 3.000000)" stroke="#000000" stroke-width="1.6">
                <g id="Page-1">
                    <polyline id="Stroke-1" points="8.21286667 0.000116666667 13.9999222 0.000116666667 13.9999222 6.00028333"></polyline>
                    <polyline id="Stroke-3" points="13.9998833 7.99322222 13.9998833 14 -0.000116666667 14 -0.000116666667 0 5.92810556 0"></polyline>
                    <path d="M5.51001111,8.45008889 L13.4822333,0.477866667" id="Stroke-5"></path>
                </g>
            </g>
            <g id="gnb상단-아웃링크_화이트" transform="translate(403.000000, 23.000000)" stroke="#FFFFFF" stroke-width="1.6">
                <g id="Page-1">
                    <polyline id="Stroke-1" points="8.21286667 0.000116666667 13.9999222 0.000116666667 13.9999222 6.00028333"></polyline>
                    <polyline id="Stroke-3" points="13.9998833 7.99322222 13.9998833 14 -0.000116666667 14 -0.000116666667 0 5.92810556 0"></polyline>
                    <path d="M5.51001111,8.45008889 L13.4822333,0.477866667" id="Stroke-5"></path>
                </g>
            </g>
            <g id="게시판-검색-버튼_블랙" transform="translate(428.000000, 8.000000)">
                <g id="Page-1">
                    <path d="M9.5,0 C6.96247924,0 4.57688174,0.988274761 2.78257825,2.78257825 C0.988274761,4.57688174 0,6.96247924 0,9.5 C0,12.0375208 0.988274761,14.4231183 2.78257825,16.2174218 C4.57688174,18.0117252 6.96247924,19 9.5,19 C12.0375208,19 14.4231183,18.0117252 16.2174218,16.2174218 C18.0117252,14.4231183 19,12.0375208 19,9.5 C19,6.96247924 18.0117252,4.57688174 16.2174218,2.78257825 C14.4231183,0.988274761 12.0375208,0 9.5,0 M9.5,1.29892844 C11.5987688,1.29892844 13.6975377,2.0996971 15.299075,3.70092499 C18.5015308,6.90369019 18.5015308,12.0963098 15.299075,15.299075 C13.6975377,16.9003029 11.5987688,17.7010716 9.5,17.7010716 C7.40123115,17.7010716 5.3024623,16.9003029 3.70092499,15.299075 C0.498159789,12.0963098 0.498159789,6.90369019 3.70092499,3.70092499 C5.3024623,2.0996971 7.40123115,1.29892844 9.5,1.29892844" id="Fill-1" fill="#000000" fill-rule="nonzero"></path>
                    <g id="Group-5" transform="translate(15.000000, 14.000000)">
                        <g id="Fill-3-Clipped">
                            <g>
                                <mask id="mask-2" fill="white">
                                    <use xlink:href="#path-1"></use>
                                </mask>
                                <g id="path-1"></g>
                                <polygon id="Fill-3" fill="#000000" fill-rule="nonzero" mask="url(#mask-2)" points="1.07772414 0.321092308 9.72358621 8.99986154 7.59255172 8.99986154 0.0122068966 1.39070769"></polygon>
                            </g>
                        </g>
                    </g>
                </g>
            </g>
            <g id="게시판-검색-버튼_화이트" transform="translate(428.000000, 48.000000)">
                <g id="Page-1">
                    <path d="M9.5,0 C6.96247924,0 4.57688174,0.988274761 2.78257825,2.78257825 C0.988274761,4.57688174 0,6.96247924 0,9.5 C0,12.0375208 0.988274761,14.4231183 2.78257825,16.2174218 C4.57688174,18.0117252 6.96247924,19 9.5,19 C12.0375208,19 14.4231183,18.0117252 16.2174218,16.2174218 C18.0117252,14.4231183 19,12.0375208 19,9.5 C19,6.96247924 18.0117252,4.57688174 16.2174218,2.78257825 C14.4231183,0.988274761 12.0375208,0 9.5,0 M9.5,1.29892844 C11.5987688,1.29892844 13.6975377,2.0996971 15.299075,3.70092499 C18.5015308,6.90369019 18.5015308,12.0963098 15.299075,15.299075 C13.6975377,16.9003029 11.5987688,17.7010716 9.5,17.7010716 C7.40123115,17.7010716 5.3024623,16.9003029 3.70092499,15.299075 C0.498159789,12.0963098 0.498159789,6.90369019 3.70092499,3.70092499 C5.3024623,2.0996971 7.40123115,1.29892844 9.5,1.29892844" id="Fill-1" fill="#FFFFFF" fill-rule="nonzero"></path>
                    <g id="Group-5" transform="translate(15.000000, 14.000000)">
                        <g id="Fill-3-Clipped">
                            <g>
                                <mask id="mask-4" fill="white">
                                    <use xlink:href="#path-3"></use>
                                </mask>
                                <g id="path-3"></g>
                                <polygon id="Fill-3" fill="#FFFFFF" fill-rule="nonzero" mask="url(#mask-4)" points="1.07772414 0.321092308 9.72358621 8.99986154 7.59255172 8.99986154 0.0122068966 1.39070769"></polygon>
                            </g>
                        </g>
                    </g>
                </g>
            </g>
            <g id="닫기-버튼_40x40_블랙" transform="translate(470.000000, 10.000000)" fill="#000000" fill-rule="nonzero">
                <polygon id="Page-1" points="19.2102718 0 10.5001567 8.7104285 1.7897282 0 0.0122241 0 9.6115614 9.5990239 0 19.2105852 0.0369856 19.2475709 1.7405185 19.2475709 10.5001567 10.4879327 19.2597949 19.2475709 20.9633278 19.2475709 21 19.2108987 21 19.2102718 11.3887521 9.5990239 20.9877759 0"></polygon>
            </g>
            <g id="닫기-버튼_40x40_화이트" transform="translate(470.000000, 50.000000)" fill="#FFFFFF" fill-rule="nonzero">
                <polygon id="Page-1" points="19.2102718 0 10.5001567 8.7104285 1.7897282 0 0.0122241 0 9.6115614 9.5990239 0 19.2105852 0.0369856 19.2475709 1.7405185 19.2475709 10.5001567 10.4879327 19.2597949 19.2475709 20.9633278 19.2475709 21 19.2108987 21 19.2102718 11.3887521 9.5990239 20.9877759 0"></polygon>
            </g>
            <g id="게시판-리스트타입-보기-버튼_기본" transform="translate(505.000000, 11.000000)" fill="#AEAEAE" fill-rule="nonzero">
                <g id="Page-1">
                    <path d="M0,7.15901136 L7.22368421,7.15901136 L7.22368421,-7.95454545e-05 L0,-7.95454545e-05 L0,7.15901136 Z M1.60526316,5.5685 L5.61842105,5.5685 L5.61842105,1.59122727 L1.60526316,1.59122727 L1.60526316,5.5685 Z" id="Fill-1"></path>
                    <rect id="Rectangle" x="10" y="3" width="18" height="1.5"></rect>
                    <rect id="Rectangle" x="10" y="13" width="18" height="1.5"></rect>
                    <path d="M0,17.4971364 L7.22368421,17.4971364 L7.22368421,10.3380455 L0,10.3380455 L0,17.4971364 Z M1.60526316,15.9062273 L5.61842105,15.9062273 L5.61842105,11.9289545 L1.60526316,11.9289545 L1.60526316,15.9062273 Z" id="Fill-2"></path>
                </g>
            </g>
            <g id="게시판-리스트타입-보기-버튼_활성화" transform="translate(505.000000, 51.000000)" fill="#35719E" fill-rule="nonzero">
                <g id="Page-1">
                    <path d="M0,7.15901136 L7.22368421,7.15901136 L7.22368421,-7.95454545e-05 L0,-7.95454545e-05 L0,7.15901136 Z M1.60526316,5.5685 L5.61842105,5.5685 L5.61842105,1.59122727 L1.60526316,1.59122727 L1.60526316,5.5685 Z" id="Fill-1"></path>
                    <rect id="Rectangle" x="10" y="3" width="18" height="1.5"></rect>
                    <rect id="Rectangle" x="10" y="13" width="18" height="1.5"></rect>
                    <path d="M0,17.4971364 L7.22368421,17.4971364 L7.22368421,10.3380455 L0,10.3380455 L0,17.4971364 Z M1.60526316,15.9062273 L5.61842105,15.9062273 L5.61842105,11.9289545 L1.60526316,11.9289545 L1.60526316,15.9062273 Z" id="Fill-2"></path>
                </g>
            </g>
            <g id="게시판-그리드보기-버튼_기본" transform="translate(546.000000, 11.000000)" fill="#AEAEAE" fill-rule="nonzero">
                <g id="Page-1">
                    <path d="M0,11.0697674 L29.2960526,11.0697674 L29.2960526,0 L0,0 L0,11.0697674 Z M1.60526316,9.48837209 L27.6907895,9.48837209 L27.6907895,1.58139535 L1.60526316,1.58139535 L1.60526316,9.48837209 Z" id="Fill-1"></path>
                    <rect id="Rectangle" x="0" y="16" width="29" height="1.5"></rect>
                </g>
            </g>
            <g id="게시판-그리드보기-버튼_활성화" transform="translate(546.000000, 51.000000)" fill="#35719E" fill-rule="nonzero">
                <g id="Page-1">
                    <path d="M0,11.0697674 L29.2960526,11.0697674 L29.2960526,0 L0,0 L0,11.0697674 Z M1.60526316,9.48837209 L27.6907895,9.48837209 L27.6907895,1.58139535 L1.60526316,1.58139535 L1.60526316,9.48837209 Z" id="Fill-1"></path>
                    <rect id="Rectangle" x="0" y="16" width="29" height="1.5"></rect>
                </g>
            </g>
            <g id="다운로드-버튼_기본" transform="translate(585.000000, 10.000000)" fill="#000000" fill-rule="nonzero">
                <g id="Page-1">
                    <polygon id="Fill-1" points="14.2105263 16.0784314 15.7898684 16.0784314 15.7898684 0.391764706 14.2105263 0.391764706"></polygon>
                    <polygon id="Fill-2" points="28.4210526 12.1569412 28.4210526 18.431451 1.57934211 18.431451 1.57934211 12.1569412 0 12.1569412 0 18.431451 0 20.0000784 1.57934211 20.0000784 28.4210526 20.0000784 30 20.0000784 30 12.1569412"></polygon>
                </g>
            </g>
            <g id="다운로드-버튼_화이트" transform="translate(585.000000, 50.000000)" fill="#FFFFFF" fill-rule="nonzero">
                <g id="Page-1">
                    <polygon id="Fill-1" points="14.2105263 16.0784314 15.7898684 16.0784314 15.7898684 0.391764706 14.2105263 0.391764706"></polygon>
                    <polygon id="Fill-2" points="28.4210526 12.1569412 28.4210526 18.431451 1.57934211 18.431451 1.57934211 12.1569412 0 12.1569412 0 18.431451 0 20.0000784 1.57934211 20.0000784 28.4210526 20.0000784 30 20.0000784 30 12.1569412"></polygon>
                </g>
            </g>
            <g id="게시판-동영상-버튼_기본" transform="translate(627.000000, 19.000000)" fill="#FFFFFF" fill-rule="nonzero">
                <path d="M0,0 L0,52 L75.9999,26 L0,0 Z M4.001,5.596 L63.643,26 L4.001,46.404 L4.001,5.596 Z" id="Page-1"></path>
            </g>
            <g id="게시판-동영상-버튼_블랙" transform="translate(627.000000, 109.000000)" fill="#000000" fill-rule="nonzero">
                <path d="M0,0 L0,52 L75.9999,26 L0,0 Z M4.001,5.596 L63.643,26 L4.001,46.404 L4.001,5.596 Z" id="Page-1"></path>
            </g>
            <g id="공유하기-레이어-아이콘" transform="translate(260.000000, 91.000000)">
                <g id="공유하기-레이어---페이스북" fill="#999999" fill-rule="nonzero">
                    <g id="Page-1">
                        <path d="M12.9807692,39 L12.9807692,21.2109283 L18.8763198,21.2109283 L19.7586727,14.2755582 L12.9807692,14.2755582 L12.9807692,9.85120447 C12.9807692,7.84430082 13.5312971,6.47517626 16.372549,6.47517626 L20,6.47326675 L20,0.271151586 C19.3721719,0.189042303 17.2190799,0 14.7153092,0 C9.48906486,0 5.91063348,3.23090482 5.91063348,9.16377791 L5.91063348,14.2755582 L0,14.2755582 L0,21.2109283 L5.91063348,21.2109283 L5.91063348,39 L12.9807692,39 Z" id="Fill-1"></path>
                    </g>
                </g>
                <g id="공유하기-레이어---트위터" opacity="0.98999995" transform="translate(52.000000, 4.000000)" fill="#999999" fill-rule="nonzero">
                    <g id="Page-1">
                        <path d="M36.8110723,3.54144148 C35.4537899,4.14364867 33.9969118,4.54898043 32.4705482,4.73427495 C34.0316545,3.79622145 35.2268041,2.3138653 35.7919524,0.553567374 C34.3350743,1.41750307 32.7137472,2.04518825 30.9951406,2.38566692 C29.6193288,0.919524048 27.6575231,0 25.487261,0 C21.3158182,0 17.9341932,3.38162496 17.9341932,7.55075163 C17.9341932,8.14601027 17.9990463,8.72042327 18.1287524,9.27630683 C11.8519006,8.95898997 6.2907489,5.9525864 2.56169672,1.38507653 C1.91548208,2.49684364 1.54026068,3.79622145 1.54026068,5.18129797 C1.54026068,7.80089923 2.87438122,10.1101322 4.90104001,11.4650983 C3.66188292,11.4257232 2.501476,11.0852446 1.48003997,10.5200963 L1.48003997,10.6173759 C1.48003997,14.2746265 4.08574413,17.3250375 7.53685454,18.0222081 C6.90685317,18.1912893 6.23516055,18.2839366 5.55188701,18.2839366 C5.05854035,18.2839366 4.59067169,18.237613 4.12511922,18.1495981 C5.08865071,21.1513693 7.8796494,23.3332122 11.1848404,23.393433 C8.59534947,25.4200917 5.34111449,26.6268223 1.80198919,26.6268223 C1.19514964,26.6268223 0.590626277,26.5897634 0,26.5225941 C3.34456606,28.6673782 7.31218493,29.9158 11.576275,29.9158 C25.4687316,29.9158 33.0588583,18.4066942 33.0588583,8.42858441 C33.0588583,8.104319 33.0542259,7.77542123 33.0380126,7.45115582 C34.5134202,6.38339616 35.7965848,5.05622417 36.8110723,3.54144148" id="Fill-1"></path>
                    </g>
                </g>
                <g id="공유하기-레이어---구글플러스" transform="translate(108.000000, 5.000000)">
                    <g id="Page-1">
                        <g id="Group">
                            <g id="Group-3" opacity="0.98999995" fill="#999999" fill-rule="nonzero">
                                <path d="M26.481642,11.9419338 L21.7522651,11.9419338 L21.7355536,11.9322969 C21.7379409,11.9371154 21.7403283,11.9419338 21.7403283,11.9515708 L13.6543114,11.9515708 L13.6543114,17.1796015 L20.9787578,17.1796015 C20.9644336,18.0445154 20.6516883,18.7648754 20.1025936,19.4322323 C18.5722904,21.3114323 16.2446062,22.5112292 13.6471493,22.5112292 C9.02042934,22.5112292 5.26987355,18.7263277 5.26987355,14.0596477 C5.26987355,9.39055846 9.02042934,5.60806615 13.6471493,5.60806615 C15.7002862,5.60806615 17.5791451,6.36215538 19.0402146,7.60290923 L22.6164925,3.80596154 C20.2267367,1.66897385 17.0849599,0.375216923 13.6471493,0.375216923 C6.15319987,0.375216923 0.0821219757,6.50189077 0.0821219757,14.0596477 C0.0821219757,21.6222231 6.15319987,27.7488969 13.6471493,27.7488969 C16.2589304,27.7488969 18.6964336,26.9948077 20.766282,25.7058692 C24.6290441,23.2966385 26.643983,18.9768877 26.643983,14.0596477 C26.643983,13.3392877 26.5914609,12.6333831 26.481642,11.9419338" id="Fill-1"></path>
                            </g>
                            <g id="Group-6" transform="translate(29.000000, 6.000000)">
                                <g id="Fill-4-Clipped">
                                    <g>
                                        <mask id="mask-6" fill="white">
                                            <use xlink:href="#path-5"></use>
                                        </mask>
                                        <g id="path-5"></g>
                                        <polygon id="Fill-4" fill="#999999" fill-rule="nonzero" opacity="0.98999995" mask="url(#mask-6)" points="14.9783684 5.51943092 9.55705263 5.51943092 9.55705263 0.0328380612 5.90731579 0.0328380612 5.90731579 5.51943092 0.495473684 5.51943092 0.495473684 9.20831969 5.90731579 9.20831969 5.90731579 14.6901187 9.55705263 14.6901187 9.55705263 9.20831969 14.9783684 9.20831969"></polygon>
                                    </g>
                                </g>
                            </g>
                        </g>
                    </g>
                </g>
                <g id="공유하기-레이어---핀터레스트" transform="translate(176.000000, 1.000000)" fill="#999999" fill-rule="nonzero">
                    <g id="Page-1">
                        <path d="M16.3388662,26.836003 C14.1480948,26.6618684 13.2273121,25.5449936 11.5094852,24.4725322 C10.5647374,29.5660112 9.41082465,34.449322 5.99212569,37 C4.93570369,29.3008707 7.54072948,23.5190657 8.75072393,17.3807791 C6.68841865,13.811774 8.99917874,6.6280094 13.3489311,8.39818231 C18.7024474,10.574781 8.71387958,21.6689484 15.4193878,23.0543157 C22.4201399,24.5003535 25.2776961,10.5665687 20.9364212,6.03454394 C14.6640787,-0.509330453 2.67760168,5.88554908 4.1515386,15.2531191 C4.51068947,17.5431818 6.81248302,18.2383794 5.07118003,21.3989476 C1.05677644,20.484699 -0.141153931,17.2296055 0.0129076103,12.8899835 C0.261199385,5.7863309 6.22134318,0.812852286 12.1995831,0.1243586 C19.7598475,-0.745308815 26.855971,2.97838951 27.8357698,10.2891936 C28.9381658,18.5415647 24.4226138,27.4779044 16.3388662,26.836003" id="Fill-1"></path>
                    </g>
                </g>
                <g id="공유하기-레이어---url복사" transform="translate(233.000000, 3.000000)" stroke="#999999" stroke-width="3.8">
                    <g id="Page-1">
                        <path d="M16.8648602,12.1065807 L14.4778964,9.71961687 L23.7177036,0.479809639 C24.357559,-0.160045783 25.3947639,-0.160045783 26.0350289,0.479809639 L33.2762096,7.7214 C33.9160651,8.36125542 33.9160651,9.39886988 33.2762096,10.0387253 L24.036812,19.2781229 L21.7104747,16.9521952" id="Stroke-1"></path>
                        <path d="M16.8912819,21.6496843 L19.2782458,24.0366482 L10.0384386,33.2760458 C9.39858313,33.9163108 8.36137831,33.9163108 7.72152289,33.2760458 L0.47993253,26.0348651 C-0.159922892,25.3950096 -0.159922892,24.3573952 0.47993253,23.7175398 L9.71973976,14.4777325 L12.0456675,16.8040699" id="Stroke-3"></path>
                        <path d="M10.1600193,23.4524627 L23.268453,10.3440289" id="Stroke-5"></path>
                    </g>
                </g>
            </g>
            <g id="공유하기-레이어-아이콘_오버" transform="translate(260.000000, 431.000000)">
                <g id="공유하기-레이어---페이스북" fill="#35719E" fill-rule="nonzero">
                    <g id="Page-1">
                        <path d="M12.9807692,39 L12.9807692,21.2109283 L18.8763198,21.2109283 L19.7586727,14.2755582 L12.9807692,14.2755582 L12.9807692,9.85120447 C12.9807692,7.84430082 13.5312971,6.47517626 16.372549,6.47517626 L20,6.47326675 L20,0.271151586 C19.3721719,0.189042303 17.2190799,0 14.7153092,0 C9.48906486,0 5.91063348,3.23090482 5.91063348,9.16377791 L5.91063348,14.2755582 L0,14.2755582 L0,21.2109283 L5.91063348,21.2109283 L5.91063348,39 L12.9807692,39 Z" id="Fill-1"></path>
                    </g>
                </g>
                <g id="공유하기-레이어---트위터" opacity="0.98999995" transform="translate(52.000000, 4.000000)" fill="#35719E" fill-rule="nonzero">
                    <g id="Page-1">
                        <path d="M36.8110723,3.54144148 C35.4537899,4.14364867 33.9969118,4.54898043 32.4705482,4.73427495 C34.0316545,3.79622145 35.2268041,2.3138653 35.7919524,0.553567374 C34.3350743,1.41750307 32.7137472,2.04518825 30.9951406,2.38566692 C29.6193288,0.919524048 27.6575231,0 25.487261,0 C21.3158182,0 17.9341932,3.38162496 17.9341932,7.55075163 C17.9341932,8.14601027 17.9990463,8.72042327 18.1287524,9.27630683 C11.8519006,8.95898997 6.2907489,5.9525864 2.56169672,1.38507653 C1.91548208,2.49684364 1.54026068,3.79622145 1.54026068,5.18129797 C1.54026068,7.80089923 2.87438122,10.1101322 4.90104001,11.4650983 C3.66188292,11.4257232 2.501476,11.0852446 1.48003997,10.5200963 L1.48003997,10.6173759 C1.48003997,14.2746265 4.08574413,17.3250375 7.53685454,18.0222081 C6.90685317,18.1912893 6.23516055,18.2839366 5.55188701,18.2839366 C5.05854035,18.2839366 4.59067169,18.237613 4.12511922,18.1495981 C5.08865071,21.1513693 7.8796494,23.3332122 11.1848404,23.393433 C8.59534947,25.4200917 5.34111449,26.6268223 1.80198919,26.6268223 C1.19514964,26.6268223 0.590626277,26.5897634 0,26.5225941 C3.34456606,28.6673782 7.31218493,29.9158 11.576275,29.9158 C25.4687316,29.9158 33.0588583,18.4066942 33.0588583,8.42858441 C33.0588583,8.104319 33.0542259,7.77542123 33.0380126,7.45115582 C34.5134202,6.38339616 35.7965848,5.05622417 36.8110723,3.54144148" id="Fill-1"></path>
                    </g>
                </g>
                <g id="공유하기-레이어---구글플러스" transform="translate(108.000000, 5.000000)">
                    <g id="Page-1">
                        <g id="Group">
                            <g id="Group-3" opacity="0.98999995" fill="#35719E" fill-rule="nonzero">
                                <path d="M26.481642,11.9419338 L21.7522651,11.9419338 L21.7355536,11.9322969 C21.7379409,11.9371154 21.7403283,11.9419338 21.7403283,11.9515708 L13.6543114,11.9515708 L13.6543114,17.1796015 L20.9787578,17.1796015 C20.9644336,18.0445154 20.6516883,18.7648754 20.1025936,19.4322323 C18.5722904,21.3114323 16.2446062,22.5112292 13.6471493,22.5112292 C9.02042934,22.5112292 5.26987355,18.7263277 5.26987355,14.0596477 C5.26987355,9.39055846 9.02042934,5.60806615 13.6471493,5.60806615 C15.7002862,5.60806615 17.5791451,6.36215538 19.0402146,7.60290923 L22.6164925,3.80596154 C20.2267367,1.66897385 17.0849599,0.375216923 13.6471493,0.375216923 C6.15319987,0.375216923 0.0821219757,6.50189077 0.0821219757,14.0596477 C0.0821219757,21.6222231 6.15319987,27.7488969 13.6471493,27.7488969 C16.2589304,27.7488969 18.6964336,26.9948077 20.766282,25.7058692 C24.6290441,23.2966385 26.643983,18.9768877 26.643983,14.0596477 C26.643983,13.3392877 26.5914609,12.6333831 26.481642,11.9419338" id="Fill-1"></path>
                            </g>
                            <g id="Group-6" transform="translate(29.000000, 6.000000)">
                                <g id="Fill-4-Clipped">
                                    <g>
                                        <mask id="mask-8" fill="white">
                                            <use xlink:href="#path-7"></use>
                                        </mask>
                                        <g id="path-7"></g>
                                        <polygon id="Fill-4" fill="#35719E" fill-rule="nonzero" opacity="0.98999995" mask="url(#mask-8)" points="14.9783684 5.51943092 9.55705263 5.51943092 9.55705263 0.0328380612 5.90731579 0.0328380612 5.90731579 5.51943092 0.495473684 5.51943092 0.495473684 9.20831969 5.90731579 9.20831969 5.90731579 14.6901187 9.55705263 14.6901187 9.55705263 9.20831969 14.9783684 9.20831969"></polygon>
                                    </g>
                                </g>
                            </g>
                        </g>
                    </g>
                </g>
                <g id="공유하기-레이어---핀터레스트" transform="translate(176.000000, 1.000000)" fill="#35719E" fill-rule="nonzero">
                    <g id="Page-1">
                        <path d="M16.3388662,26.836003 C14.1480948,26.6618684 13.2273121,25.5449936 11.5094852,24.4725322 C10.5647374,29.5660112 9.41082465,34.449322 5.99212569,37 C4.93570369,29.3008707 7.54072948,23.5190657 8.75072393,17.3807791 C6.68841865,13.811774 8.99917874,6.6280094 13.3489311,8.39818231 C18.7024474,10.574781 8.71387958,21.6689484 15.4193878,23.0543157 C22.4201399,24.5003535 25.2776961,10.5665687 20.9364212,6.03454394 C14.6640787,-0.509330453 2.67760168,5.88554908 4.1515386,15.2531191 C4.51068947,17.5431818 6.81248302,18.2383794 5.07118003,21.3989476 C1.05677644,20.484699 -0.141153931,17.2296055 0.0129076103,12.8899835 C0.261199385,5.7863309 6.22134318,0.812852286 12.1995831,0.1243586 C19.7598475,-0.745308815 26.855971,2.97838951 27.8357698,10.2891936 C28.9381658,18.5415647 24.4226138,27.4779044 16.3388662,26.836003" id="Fill-1"></path>
                    </g>
                </g>
                <g id="공유하기-레이어---url복사" transform="translate(233.000000, 3.000000)" stroke="#35719E" stroke-width="3.8">
                    <g id="Page-1">
                        <path d="M16.8648602,12.1065807 L14.4778964,9.71961687 L23.7177036,0.479809639 C24.357559,-0.160045783 25.3947639,-0.160045783 26.0350289,0.479809639 L33.2762096,7.7214 C33.9160651,8.36125542 33.9160651,9.39886988 33.2762096,10.0387253 L24.036812,19.2781229 L21.7104747,16.9521952" id="Stroke-1"></path>
                        <path d="M16.8912819,21.6496843 L19.2782458,24.0366482 L10.0384386,33.2760458 C9.39858313,33.9163108 8.36137831,33.9163108 7.72152289,33.2760458 L0.47993253,26.0348651 C-0.159922892,25.3950096 -0.159922892,24.3573952 0.47993253,23.7175398 L9.71973976,14.4777325 L12.0456675,16.8040699" id="Stroke-3"></path>
                        <path d="M10.1600193,23.4524627 L23.268453,10.3440289" id="Stroke-5"></path>
                    </g>
                </g>
            </g>
            <g id="드랍다운-열기-버튼-기본" transform="translate(560.500000, 100.500000) rotate(90.000000) translate(-560.500000, -100.500000) translate(555.000000, 90.000000)" stroke="#000000" stroke-width="2">
                <polyline id="Page-1" transform="translate(5.250000, 10.250000) scale(-1, 1) translate(-5.250000, -10.250000) " points="10.5 0 0 10.2798328 10.4390565 20.5"></polyline>
            </g>
            <g id="드랍다운-닫기-버튼-기본" transform="translate(600.500000, 99.500000) scale(-1, 1) rotate(-90.000000) translate(-600.500000, -99.500000) translate(595.000000, 89.000000)" stroke="#000000" stroke-width="2">
                <polyline id="Page-1" transform="translate(5.250000, 10.250000) scale(-1, 1) translate(-5.250000, -10.250000) " points="10.5 0 0 10.2798328 10.4390565 20.5"></polyline>
            </g>
            <g id="드랍다운-열기-버튼-화이트" transform="translate(560.500000, 140.500000) rotate(90.000000) translate(-560.500000, -140.500000) translate(555.000000, 130.000000)" stroke="#FFFFFF" stroke-width="2">
                <polyline id="Page-1" transform="translate(5.250000, 10.250000) scale(-1, 1) translate(-5.250000, -10.250000) " points="10.5 0 0 10.2798328 10.4390565 20.5"></polyline>
            </g>
            <g id="드랍다운-닫기-버튼-화이트" transform="translate(600.500000, 139.500000) scale(-1, 1) rotate(-90.000000) translate(-600.500000, -139.500000) translate(595.000000, 129.000000)" stroke="#FFFFFF" stroke-width="2">
                <polyline id="Page-1" transform="translate(5.250000, 10.250000) scale(-1, 1) translate(-5.250000, -10.250000) " points="10.5 0 0 10.2798328 10.4390565 20.5"></polyline>
            </g>
            <g id="동영상-플레이-버튼_140x140_기본" transform="translate(10.000000, 269.000000)" fill="#FFFFFF" fill-rule="nonzero">
                <path d="M0.8888889,0.5555556 L0.8888889,81.444444 L119.110956,41 L0.8888889,0.5555556 Z M7.1126667,9.2604444 L99.889111,41 L7.1126667,72.739556 L7.1126667,9.2604444 Z" id="Page-1"></path>
            </g>
            <g id="동영상-플레이-버튼_140x140_블랙" transform="translate(10.000000, 409.000000)" fill="#000000" fill-rule="nonzero">
                <path d="M0.8888889,0.5555556 L0.8888889,81.444444 L119.110956,41 L0.8888889,0.5555556 Z M7.1126667,9.2604444 L99.889111,41 L7.1126667,72.739556 L7.1126667,9.2604444 Z" id="Page-1"></path>
            </g>
            <g id="Max-Power(ps)" transform="translate(240.000000, 140.000000)" fill-rule="nonzero">
                <rect id="Rectangle" fill="#ED383F" opacity="0" x="0" y="0" width="40" height="40"></rect>
                <g id="Page-1" opacity="0.699999988" transform="translate(3.852379, 12.520232)" fill="#FFFFFF">
                    <path d="M27.1308524,4.46228058 C27.083866,4.46228058 27.0419319,4.47815705 27.0045449,4.4999872 L27.0045449,0.248069856 C27.0045449,0.110639156 26.8913734,0 26.7519299,0 L22.2048596,0 C22.0654162,0 21.9522446,0.110639156 21.9522446,0.248069856 L21.9522446,7.44060727 L8.4418885,7.44060727 L8.4418885,0.248069856 C8.4418885,0.110639156 8.32871698,0 8.18927349,0 L3.64220326,0 C3.50225454,0 3.38958824,0.110639156 3.38958824,0.248069856 L3.38958824,4.4999872 C3.35220122,4.47815705 3.31026713,4.46228058 3.26328074,4.46228058 L0.252615013,4.46228058 C0.112666296,4.46228058 0,4.57341587 0,4.71035043 L0,11.2901553 C0,11.4270899 0.112666296,11.5382252 0.252615013,11.5382252 L3.26328074,11.5382252 C3.31026713,11.5382252 3.35220122,11.5218526 3.38958824,11.5000224 L3.38958824,15.7524359 C3.38958824,15.8893704 3.50225454,16.0005057 3.64220326,16.0005057 L8.18927349,16.0005057 C8.32871698,16.0005057 8.4418885,15.8893704 8.4418885,15.7524359 L8.4418885,9.27194651 L21.9522446,9.27194651 L21.9522446,15.7524359 C21.9522446,15.8893704 22.0654162,16.0005057 22.2048596,16.0005057 L26.7519299,16.0005057 C26.8913734,16.0005057 27.0045449,15.8893704 27.0045449,15.7524359 L27.0045449,11.5000224 C27.0419319,11.5218526 27.083866,11.5382252 27.1308524,11.5382252 L30.1415181,11.5382252 C30.2809616,11.5382252 30.3941331,11.4270899 30.3941331,11.2901553 L30.3941331,4.71035043 C30.3941331,4.57341587 30.2809616,4.46228058 30.1415181,4.46228058 L27.1308524,4.46228058 Z" id="Fill-1"></path>
                </g>
            </g>
            <g id="Max-Torque(kgm)" transform="translate(280.000000, 140.000000)">
                <g id="Mask" opacity="0" fill="#ED383F" fill-rule="nonzero">
                    <rect id="path-9" x="0" y="0" width="40" height="40"></rect>
                </g>
                <g id="Page-1-Clipped">
                    <g>
                        <mask id="mask-10" fill="white">
                            <use xlink:href="#path-9"></use>
                        </mask>
                        <g id="path-9"></g>
                        <g id="Page-1" opacity="0.699999988" mask="url(#mask-10)">
                            <g transform="translate(8.000000, 7.000000)" id="Group-3">
                                <g>
                                    <g id="Group" fill="#FFFFFF" fill-rule="nonzero">
                                        <g>
                                            <g transform="translate(0.667853, 0.704758)">
                                                <g transform="translate(0.000000, 0.382436)">
                                                    <path d="M11.0055299,18.3737463 C7.13267962,18.3737463 3.99390908,15.1724194 3.99390908,11.2235558 C3.99390908,7.27416699 7.13267962,4.07284009 11.0055299,4.07284009 C14.8783802,4.07284009 18.0171508,7.27416699 18.0171508,11.2235558 C18.0171508,15.1724194 14.8783802,18.3737463 11.0055299,18.3737463 M21.9502729,10.0510318 C20.6675651,8.95888235 19.8495169,7.31671827 19.8495169,5.47913351 C19.8495169,5.19703431 19.8757892,4.92228965 19.9128796,4.65017161 C19.3359186,3.8385454 18.6600501,3.10624319 17.8950617,2.47848053 C17.7461852,2.49003767 17.5967935,2.5015948 17.4448261,2.5015948 C15.5563093,2.5015948 13.8820923,1.58332775 12.8157449,0.164951862 C12.2248751,0.0646149014 11.6231872,0 11.0055299,0 C10.589809,0 10.1807849,0.0283675177 9.77691221,0.0740707407 C8.71468591,1.54392842 7.00956028,2.5015948 5.08137742,2.5015948 C4.77641235,2.5015948 4.47917444,2.47060066 4.18708796,2.42489744 C3.39376667,3.06421724 2.69214096,3.81438048 2.09818028,4.65017161 C2.13527062,4.92228965 2.16102781,5.19703431 2.16102781,5.47913351 C2.16102781,7.31671827 1.34349476,8.95888235 0.0607869562,10.0510318 C0.0216360353,10.4366199 0,10.8274612 0,11.2235558 C0,11.8597237 0.0643929621,12.4785558 0.163815695,13.0863562 C1.38573654,14.1769296 2.16102781,15.7754918 2.16102781,17.5615948 C2.16102781,17.6629824 2.15175522,17.7622687 2.14660378,17.8620803 C2.74932191,18.6973461 3.46022021,19.4433068 4.2617838,20.0794746 C4.53068881,20.0411259 4.80268468,20.0143344 5.08137742,20.0143344 C6.97556079,20.0143344 8.65389896,20.93838 9.71973126,22.3635851 C10.1421491,22.4134909 10.5697184,22.4465864 11.0055299,22.4465864 C11.6432778,22.4465864 12.2645411,22.3793448 12.8724107,22.2732293 C13.941849,20.8989807 15.5903088,20.0143344 17.4448261,20.0143344 C17.5679455,20.0143344 17.6890042,20.0258915 17.810063,20.0332461 C18.58793,19.4075847 19.2771923,18.6763331 19.8644561,17.8620803 C19.8593046,17.7622687 19.8495169,17.6629824 19.8495169,17.5615948 C19.8495169,15.7754918 20.6253233,14.1769296 21.8472442,13.0863562 C21.9466669,12.4785558 22.0110599,11.8597237 22.0110599,11.2235558 C22.0110599,10.8274612 21.9894238,10.4366199 21.9502729,10.0510318" id="Fill-1"></path>
                                                    <path d="M8.66785263,11.097478 C8.66785263,9.75527414 9.73420008,8.66785263 11.0503922,8.66785263 C12.3665844,8.66785263 13.4329318,9.75527414 13.4329318,11.097478 C13.4329318,12.4391565 12.3665844,13.5271033 11.0503922,13.5271033 C9.73420008,13.5271033 8.66785263,12.4391565 8.66785263,11.097478" id="Fill-4"></path>
                                                </g>
                                            </g>
                                        </g>
                                    </g>
                                </g>
                            </g>
                        </g>
                    </g>
                </g>
            </g>
            <g id="Displacement(CC)" transform="translate(320.000000, 140.000000)">
                <g id="Mask" opacity="0" fill="#ED383F" fill-rule="nonzero">
                    <rect id="path-11" x="0" y="0" width="40" height="40"></rect>
                </g>
                <g id="Fill-1-Clipped">
                    <g>
                        <mask id="mask-12" fill="white">
                            <use xlink:href="#path-11"></use>
                        </mask>
                        <g id="path-11"></g>
                        <path d="M19.6069463,10.6410223 C20.5785775,10.6410223 21.3689719,11.4154914 21.3689719,12.3675458 C21.3689719,13.3196002 20.5785775,14.0940693 19.6069463,14.0940693 C18.635315,14.0940693 17.8449207,13.3196002 17.8449207,12.3675458 C17.8449207,11.4154914 18.635315,10.6410223 19.6069463,10.6410223 M30.4207491,28.1336651 L26.2135354,15.308062 C26.1465784,15.1038389 25.9527556,14.965717 25.7342644,14.965717 L22.2937836,14.965717 C22.9668774,14.2973058 23.3827154,13.3802752 23.3827154,12.3675458 C23.3827154,10.3238353 21.6926811,8.66785263 19.6069463,8.66785263 C17.5217148,8.66785263 15.8311771,10.3238353 15.8311771,12.3675458 C15.8311771,13.3802752 16.2475186,14.2973058 16.9206124,14.965717 L13.3789409,14.965717 C13.1599463,14.965717 12.9671304,15.1038389 12.89967,15.308062 L8.69245627,28.1336651 C8.58774161,28.4518387 8.83039771,28.777905 9.17172724,28.777905 L29.9414781,28.777905 C30.2828076,28.777905 30.5249603,28.4518387 30.4207491,28.1336651" id="Fill-1" fill="#FFFFFF" fill-rule="nonzero" opacity="0.699999988" mask="url(#mask-12)"></path>
                    </g>
                </g>
            </g>
            <g id="Emission" transform="translate(360.000000, 140.000000)">
                <g id="Mask" opacity="0" fill="#ED383F" fill-rule="nonzero">
                    <rect id="path-13" x="0" y="0" width="40" height="40"></rect>
                </g>
                <g id="Page-1-Clipped">
                    <g>
                        <mask id="mask-14" fill="white">
                            <use xlink:href="#path-13"></use>
                        </mask>
                        <g id="path-13"></g>
                        <polygon id="Page-1" fill="#FFFFFF" fill-rule="nonzero" opacity="0.699999988" mask="url(#mask-14)" points="17.5091862 11.5571368 17.5091862 15.5620098 21.065765 15.5620098 21.065765 17.4918972 14.7590337 17.4918972 14.7590337 21.5781257 12.6723062 21.5781257 12.6723062 18.0919991 8.66785263 18.0919991 8.66785263 26.9962365 12.6723062 26.9962365 12.6723062 23.6661112 14.7590337 23.6661112 14.7590337 27.8362114 29.8559368 27.8362114 29.8559368 17.4918972 23.0698789 17.4918972 23.0698789 15.5620098 26.9376216 15.5620098 26.9376216 11.5571368"></polygon>
                    </g>
                </g>
            </g>
            <g id="텍스트-링크_블랙" transform="translate(405.000000, 43.000000)" stroke="#000000" stroke-width="1.5">
                <polyline id="Path-4" points="0.50000012 0.30000007 7.1000003 5.83139804 0.5681103 11.3000003"></polyline>
            </g>
            <g id="텍스트-링크_화이트" transform="translate(405.000000, 61.000000)" stroke="#FFFFFF" stroke-width="1.5">
                <polyline id="Path-4" points="0.50000012 0.30000007 7.1000003 5.83139804 0.5681103 11.3000003"></polyline>
            </g>
            <g id="360VR-및-인테리어-버튼" transform="translate(140.000000, 240.000000)">
                <circle id="Oval" fill="#000000" fill-rule="nonzero" opacity="0.600000024" cx="70" cy="70" r="70"></circle>
                <g id="360°" transform="translate(53.000000, 60.000000)" fill="#FFFFFF" font-family="Helvetica" font-size="16" font-weight="normal">
                    <g id="Group">
                        <text id="360°">
                            <tspan x="0.312" y="15">360°</tspan>
                        </text>
                    </g>
                </g>
                <g id="Page-1" transform="translate(33.000000, 52.000000)" stroke="#FFFFFF" stroke-width="3">
                    <polyline id="Stroke-1" points="16.6667 37 -0.0003 37 -0.0003 0 43.9997 0 36.9337 7.066"></polyline>
                    <polyline id="Stroke-3" points="57.3332 0 74.0002 0 74.0002 37 30.0002 37 37.0662 29.934"></polyline>
                </g>
            </g>
            <g id="오류화면-아이콘" transform="translate(306.000000, 266.000000)">
                <g id="Group-24-Copy-2">
                    <g id="Page-1">
                        <path d="M67.0714728,83.5020991 L62.1329999,83.5020991 L59.3879087,49.3557019 L59.3879087,25.2054352 L69.816564,25.2054352 L69.816564,49.3557019 L67.0714728,83.5020991 Z M58.5094026,103.590477 L70.6950701,103.590477 L70.6950701,91.4048091 L58.5094026,91.4048091 L58.5094026,103.590477 Z" id="Fill-1" fill="#FFFFFF" fill-rule="nonzero"></path>
                        <path d="M0.202742537,64.3989171 C0.202742537,28.831916 29.0358119,0.000768933112 64.6008907,0.000768933112 C100.167892,0.000768933112 128.999039,28.831916 128.999039,64.3989171 C128.999039,99.9639959 100.167892,128.797065 64.6008907,128.797065 C29.0358119,128.797065 0.202742537,99.9639959 0.202742537,64.3989171 Z" id="Stroke-2" stroke="#FFFFFF" stroke-width="7.68"></path>
                    </g>
                </g>
            </g>
            <g id="쇼룸-상세-네트워크-핀" transform="translate(719.000000, 6.000000)" fill="#35719E" fill-rule="nonzero">
                <path d="M11.1662539,0 C5.369108,0 0.66666667,4.6666667 0.66666667,10.4215394 C0.66666667,12.4316067 1.2404372,14.3040094 2.2377246,15.9019023 L2.2377246,15.9117354 L2.3037701,15.9985953 C2.5629988,16.4050337 2.8469945,16.7950834 3.175571,17.1671056 L11.1662539,28 L19.1577623,17.1671056 C19.4863388,16.7950834 19.7703346,16.4050337 20.0295632,15.9985953 L20.0956088,15.9117354 L20.0956088,15.9019023 C21.0928962,14.3040094 21.6666667,12.4316067 21.6666667,10.4215394 C21.6666667,4.6666667 16.9642253,0 11.1662539,0" id="Fill-1"></path>
            </g>
            <g id="네트워크-핀" transform="translate(710.000000, 40.000000)">
                <rect id="Rectangle" opacity="0.720618207" x="0" y="0" width="40" height="40"></rect>
                <path d="M31,15.4693878 C31,21.2514286 20.5,35 20.5,35 C20.5,35 10,21.2514286 10,15.4693878 C10,9.68734694 14.7010526,5 20.5,5 C26.2989474,5 31,9.68734694 31,15.4693878" id="Page-1" fill="#35719E" fill-rule="nonzero"></path>
            </g>
            <g id="Top버튼" transform="translate(0.000000, 520.000000)" fill-rule="nonzero">
                <rect id="Rectangle-23" fill="#35719E" opacity="0.900000036" x="0" y="0" width="80" height="80" rx="2.66666667"></rect>
                <polygon id="Page-1" fill="#FFFFFF" points="40.3332729 25.333093 25.3333333 40.2482862 28.7504293 40.2482862 39.1249646 29.9329655 39.1249646 54.6666667 41.5415812 54.6666667 41.5415812 29.9329655 51.9161166 40.2482862 55.3332125 40.2482862"></polygon>
            </g>
            <g id="슬라이드-이전/다음-버튼_기본" transform="translate(480.000000, 254.000000)" fill="#000000" fill-rule="nonzero">
                <g id="슬라이드-이전-버튼" transform="translate(0.000000, 1.000000)">
                    <polygon id="Page-1" points="25.452 0.3333333 0 25.66 25.452 50.986 25.452 47.256 3.7486667 25.66 25.452 4.0633333"></polygon>
                </g>
                <g id="슬라이드-다음-버튼" transform="translate(94.000000, 0.000000)">
                    <polygon id="Page-1" transform="translate(13.392667, 25.993000) scale(-1, 1) translate(-13.392667, -25.993000) " points="26.1186667 0.6666667 0.6666667 25.9933333 26.1186667 51.3193333 26.1186667 47.5893333 4.4153333 25.9933333 26.1186667 4.3966667"></polygon>
                </g>
            </g>
            <g id="슬라이드-이전/다음-버튼_화이트" transform="translate(480.000000, 334.000000)" fill="#FFFFFF" fill-rule="nonzero">
                <g id="슬라이드-이전-버튼" transform="translate(0.000000, 1.000000)">
                    <polygon id="Page-1" points="25.452 0.3333333 0 25.66 25.452 50.986 25.452 47.256 3.7486667 25.66 25.452 4.0633333"></polygon>
                </g>
                <g id="슬라이드-다음-버튼" transform="translate(94.000000, 0.000000)">
                    <polygon id="Page-1" transform="translate(13.392667, 25.993000) scale(-1, 1) translate(-13.392667, -25.993000) " points="26.1186667 0.6666667 0.6666667 25.9933333 26.1186667 51.3193333 26.1186667 47.5893333 4.4153333 25.9933333 26.1186667 4.3966667"></polygon>
                </g>
            </g>
            <g id="동영상-플레잉-버튼" transform="translate(2.000000, 602.000000)" fill="#000000" fill-rule="nonzero">
                <g id="Group">
                    <circle id="Oval" stroke="#000000" stroke-width="3" fill-opacity="0.1" cx="57.5" cy="57.5" r="57.5"></circle>
                    <path d="M37,37 L37,79 L98,58 L37,37 Z M40.2113332,41.5198462 L88.0819488,58 L40.2113332,74.4801538 L40.2113332,41.5198462 Z" id="Page-1"></path>
                </g>
            </g>
            <g id="동영상-플레이-버튼---오버" transform="translate(121.000000, 602.000000)" fill-rule="nonzero">
                <g id="Group-2">
                    <circle id="Oval" stroke="#FFFFFF" stroke-width="3" fill-opacity="0.9" fill="#FFFFFF" cx="57.5" cy="57.5" r="57.5"></circle>
                    <polygon id="Page-1" fill="#35719E" points="37 37 37 79 98.0000803 58 98.0000803 58"></polygon>
                </g>
            </g>
            <g id="동영상-플레잉-버튼" transform="translate(240.000000, 602.000000)" fill-rule="nonzero">
                <g id="Group">
                    <circle id="Oval" stroke="#FFFFFF" stroke-width="3" fill-opacity="0.1" fill="#000000" cx="57.5" cy="57.5" r="57.5"></circle>
                    <path d="M37,37 L37,79 L98,58 L37,37 Z M40.2113332,41.5198462 L88.0819488,58 L40.2113332,74.4801538 L40.2113332,41.5198462 Z" id="Page-1" fill="#FFFFFF"></path>
                </g>
            </g>
            <g id="동영상-플레이-버튼" transform="translate(357.000000, 600.000000)">
                <g id="Oval">
                    <g id="path-15-link" fill="#000000" fill-opacity="0.5" fill-rule="nonzero">
                        <circle id="path-15" cx="40" cy="40" r="40"></circle>
                    </g>
                    <circle stroke="#FFFFFF" stroke-width="2" cx="40" cy="40" r="39"></circle>
                </g>
                <polygon id="Triangle" fill="#FFFFFF" fill-rule="nonzero" points="55 40.5 34 51 34 30"></polygon>
            </g>
            <g id="동영상-플레이-버튼---오버" transform="translate(437.000000, 600.000000)">
                <g id="Oval">
                    <g id="path-16-link" fill="#FFFFFF" fill-opacity="0.9" fill-rule="nonzero">
                        <circle id="path-16" cx="40" cy="40" r="40"></circle>
                    </g>
                    <circle stroke="#FFFFFF" stroke-width="2" cx="40" cy="40" r="39"></circle>
                </g>
                <polygon id="Triangle" fill="#35719E" fill-rule="nonzero" points="55 40.5 34 51 34 30"></polygon>
            </g>
            <g id="동영상-플레이-버튼---화이트" transform="translate(517.000000, 600.000000)">
                <g id="Oval">
                    <g id="path-17-link" fill="#FFFFFF" fill-opacity="0.5" fill-rule="nonzero">
                        <circle id="path-17" cx="40" cy="40" r="40"></circle>
                    </g>
                    <circle stroke="#222222" stroke-width="2" cx="40" cy="40" r="39"></circle>
                </g>
                <polygon id="Triangle" fill="#222222" fill-rule="nonzero" points="55 40.5 34 51 34 30"></polygon>
            </g>
            <g id="쇼룸---썸네일-리스트-동영상-아이콘" transform="translate(357.000000, 680.000000)">
                <g id="Oval">
                    <g id="path-18-link" fill="#FFFFFF" fill-opacity="0.5" fill-rule="nonzero">
                        <circle id="path-18" cx="20" cy="20" r="20"></circle>
                    </g>
                    <circle stroke="#222222" cx="20" cy="20" r="19.5"></circle>
                </g>
                <polygon id="Triangle" fill="#222222" fill-rule="nonzero" points="27.5 20.25 17 25.5 17 15"></polygon>
            </g>
            <g id="360vr-컬러칩-이전/다음-버튼" transform="translate(635.000000, 251.000000)" stroke="#222222" stroke-width="2">
                <g id="360vr-컬러칩-다음버튼" transform="translate(42.000000, 1.000000)">
                    <polyline id="Path-3" points="0 0 8.0361447 8.0361447 0.1961791 15.8761103"></polyline>
                </g>
                <g id="360vr-컬러칩-이전버튼">
                    <polyline id="Path-3" transform="translate(4.018072, 7.938055) scale(-1, 1) translate(-4.018072, -7.938055) " points="0 0 8.0361447 8.0361447 0.1961791 15.8761103"></polyline>
                </g>
            </g>
            <g id="360vr-컬러칩-이전/다음-버튼---오버" transform="translate(635.000000, 291.000000)" stroke="#35719E" stroke-width="2">
                <g id="360vr-컬러칩-다음버튼" transform="translate(42.000000, 1.000000)">
                    <polyline id="Path-3" points="0 0 8.0361447 8.0361447 0.1961791 15.8761103"></polyline>
                </g>
                <g id="360vr-컬러칩-이전버튼">
                    <polyline id="Path-3" transform="translate(4.018072, 7.938055) scale(-1, 1) translate(-4.018072, -7.938055) " points="0 0 8.0361447 8.0361447 0.1961791 15.8761103"></polyline>
                </g>
            </g>
            <g id="게시판-상세-이전/다음-아이콘" transform="translate(700.000000, 240.000000)">
                <g id="게시판-이전-아이콘">
                    <rect id="Rectangle-23" opacity="0.5" x="0" y="0" width="40" height="80"></rect>
                    <polygon id="Page-1" fill="#222222" fill-rule="nonzero" points="30 64.5 6.15901639 41.8237839 5 40.6610169 6.15901639 39.498661 30 16 30 18.3251229 7.31844262 40.6610169 30 62.1748771"></polygon>
                </g>
                <g id="게시판-다음-아이콘" transform="translate(40.000000, 0.000000)">
                    <rect id="Rectangle-23" opacity="0.5" transform="translate(20.000000, 40.000000) scale(-1, 1) translate(-20.000000, -40.000000) " x="0" y="0" width="40" height="80"></rect>
                    <polygon id="Page-1" fill="#222222" fill-rule="nonzero" transform="translate(17.500000, 40.250000) scale(-1, 1) translate(-17.500000, -40.250000) " points="30 64.5 6.15901639 41.8237839 5 40.6610169 6.15901639 39.498661 30 16 30 18.3251229 7.31844262 40.6610169 30 62.1748771"></polygon>
                </g>
            </g>
            <g id="게시판-상세-이전/다음-아이콘---오버" transform="translate(700.000000, 320.000000)">
                <g id="게시판-이전-아이콘">
                    <rect id="Rectangle-23" opacity="0.5" x="0" y="0" width="40" height="80"></rect>
                    <polygon id="Page-1" fill="#35719E" fill-rule="nonzero" points="30 64.5 6.15901639 41.8237839 5 40.6610169 6.15901639 39.498661 30 16 30 18.3251229 7.31844262 40.6610169 30 62.1748771"></polygon>
                </g>
                <g id="게시판-다음-아이콘" transform="translate(40.000000, 0.000000)">
                    <rect id="Rectangle-23" opacity="0.5" transform="translate(20.000000, 40.000000) scale(-1, 1) translate(-20.000000, -40.000000) " x="0" y="0" width="40" height="80"></rect>
                    <polygon id="Page-1" fill="#35719E" fill-rule="nonzero" transform="translate(17.500000, 40.250000) scale(-1, 1) translate(-17.500000, -40.250000) " points="30 64.5 6.15901639 41.8237839 5 40.6610169 6.15901639 39.498661 30 16 30 18.3251229 7.31844262 40.6610169 30 62.1748771"></polygon>
                </g>
            </g>
            <g id="네트워크-지역-선택-셀렉트-아이콘-열기" transform="translate(710.000000, 90.000000)">
                <rect id="Rectangle-4" opacity="0.05" x="0" y="0" width="40" height="40"></rect>
                <polyline id="Path-2" stroke="#222222" stroke-width="2" points="13 16.378942 20.3180619 24 28 16"></polyline>
            </g>
            <g id="네트워크-지역-선택-셀렉트-아이콘-닫기" transform="translate(730.000000, 150.000000) scale(-1, 1) rotate(-180.000000) translate(-730.000000, -150.000000) translate(710.000000, 130.000000)">
                <rect id="Rectangle-4" opacity="0.05" x="0" y="0" width="40" height="40"></rect>
                <polyline id="Path-2" stroke="#222222" stroke-width="2" points="13 16.378942 20.3180619 24 28 16"></polyline>
            </g>
            <g id="icon_search" transform="translate(400.000000, 140.000000)" fill-rule="nonzero">
                <rect id="Rectangle-3-Copy" fill="#FF0000" opacity="0" x="0" y="0" width="40" height="40"></rect>
                <g id="ICON" transform="translate(13.000000, 8.000000)" fill="#222222">
                    <polygon id="Rectangle-9" points="5.38461538 19.3548387 0 0 14 0 8.61538462 19.3548387"></polygon>
                    <rect id="Rectangle-9-Copy" x="5.25" y="20.9032258" width="3.5" height="3.09677419"></rect>
                </g>
            </g>
            <g id="사이트-상단-공지-닫기" transform="translate(597.000000, 600.000000)">
                <rect id="Rectangle-15" x="0" y="0" width="115" height="90"></rect>
                <polygon id="Page-1" fill="#FFFFFF" fill-rule="nonzero" opacity="0.5" points="79.3971045 20.999601 57 43.1745797 34.6020896 20.999601 30.0314328 20.999601 54.7150746 45.4367626 30 69.9058421 30.0951045 70 34.4755522 70 57 47.6997435 79.5244478 70 83.9048955 70 83.999194 69.9066401 83.999194 69.9050442 59.2849254 45.4367626 83.9677612 20.999601"></polygon>
            </g>
            <g id="사이트-상단-공지-닫기-화이트배경" transform="translate(597.000000, 690.000000)">
                <rect id="Rectangle-15" x="0" y="0" width="115" height="90"></rect>
                <polygon id="Page-1" fill="#222222" fill-rule="nonzero" opacity="0.2" points="79.3971045 20.999601 57 43.1745797 34.6020896 20.999601 30.0314328 20.999601 54.7150746 45.4367626 30 69.9058421 30.0951045 70 34.4755522 70 57 47.6997435 79.5244478 70 83.9048955 70 83.999194 69.9066401 83.999194 69.9050442 59.2849254 45.4367626 83.9677612 20.999601"></polygon>
            </g>
            <g id="사이트-상단-공지-링크" transform="translate(712.000000, 600.000000)">
                <g id="Triangle-Clipped">
                    <g>
                        <mask id="mask-16" fill="white">
                            <use xlink:href="#path-15"></use>
                        </mask>
                        <g id="path-15"></g>
                        <polygon id="Triangle" fill="#FFFFFF" fill-rule="nonzero" opacity="0.795516304" mask="url(#mask-16)" transform="translate(9.000000, 9.500000) rotate(90.000000) translate(-9.000000, -9.500000) " points="9 6 15 13 3 13"></polygon>
                    </g>
                </g>
            </g>
            <g id="사이트-상단-공지-링크-화이트배경" transform="translate(712.000000, 620.000000)">
                <g id="Triangle-Clipped">
                    <g>
                        <mask id="mask-18" fill="white">
                            <use xlink:href="#path-17"></use>
                        </mask>
                        <g id="path-17"></g>
                        <polygon id="Triangle" fill="#222222" fill-rule="nonzero" opacity="0.795516304" mask="url(#mask-18)" transform="translate(9.000000, 9.500000) rotate(90.000000) translate(-9.000000, -9.500000) " points="9 6 15 13 3 13"></polygon>
                    </g>
                </g>
            </g>
            <g id="사이트-상단-공지-오늘하루닫기-화이트배경" transform="translate(732.000000, 620.000000)">
                <g id="Page-1-Clipped">
                    <g>
                        <mask id="mask-20" fill="white">
                            <use xlink:href="#path-19"></use>
                        </mask>
                        <g id="path-19"></g>
                        <polygon id="Page-1" fill="#222222" fill-rule="nonzero" opacity="0.8" mask="url(#mask-20)" points="15.8066567 3.99989415 10 9.88305174 4.19313433 3.99989415 3.00814925 3.99989415 9.40761194 10.4832227 3 16.9750193 3.02465672 17 4.16032836 17 10 11.0836054 15.8396716 17 16.9753433 17 16.999791 16.975231 16.999791 16.9748076 10.5923881 10.4832227 16.9916418 3.99989415"></polygon>
                    </g>
                </g>
            </g>
            <g id="사이트-상단-공지-오늘하루닫기" transform="translate(732.000000, 600.000000)">
                <g id="Page-1-Clipped">
                    <g>
                        <mask id="mask-22" fill="white">
                            <use xlink:href="#path-21"></use>
                        </mask>
                        <g id="path-21"></g>
                        <polygon id="Page-1" fill="#FFFFFF" fill-rule="nonzero" opacity="0.8" mask="url(#mask-22)" points="15.8066567 3.99989415 10 9.88305174 4.19313433 3.99989415 3.00814925 3.99989415 9.40761194 10.4832227 3 16.9750193 3.02465672 17 4.16032836 17 10 11.0836054 15.8396716 17 16.9753433 17 16.999791 16.975231 16.999791 16.9748076 10.5923881 10.4832227 16.9916418 3.99989415"></polygon>
                    </g>
                </g>
            </g>
            <g id="(국)다운로드레이어" transform="translate(0.000000, 89.000000)" fill-rule="nonzero">
                <polygon id="상단아이콘" fill="#F6F3F2" points="0 91 20 71 40 91 20 111"></polygon>
                <polygon id="Page-1" fill="#000000" points="787.306153 0 779.005974 8.59839109 770.705496 0 769.011649 0 778.1592 9.47555693 769 18.9634901 770.658602 19 779.005974 10.3530322 787.353345 19 788.976703 19 779.852748 9.47555693 789 0"></polygon>
            </g>
            <g id="네트워크활성화-아이콘" transform="translate(773.000000, 428.000000)" stroke="#FFFFFF" stroke-width="2">
                <g id="ico">
                    <polyline id="Path-7" points="0 5 6.42222222 11 17 0"></polyline>
                </g>
            </g>
            <g id="현위치-아이콘" transform="translate(0.000000, 726.000000)">
                <g id="Group-3">
                    <g id="Oval-2">
                        <g id="path-23-link" fill="#000000" fill-rule="nonzero">
                            <circle id="path-23" cx="17" cy="17" r="17"></circle>
                        </g>
                        <g id="path-23-link" fill="#FFFFFF">
                            <circle id="path-23" cx="17" cy="17" r="17"></circle>
                        </g>
                    </g>
                    <g id="Group-4" transform="translate(7.000000, 7.000000)" stroke="#222222">
                        <circle id="Oval" cx="10" cy="10" r="2.83333333"></circle>
                        <circle id="Oval" cx="10" cy="10" r="7.83333333"></circle>
                        <path d="M10,0 L10,3.33333333" id="Line-2" stroke-linecap="square"></path>
                        <path d="M3.33333333,10 L0,10" id="Line-2-Copy-3" stroke-linecap="square"></path>
                        <path d="M20,10 L16.6666667,10" id="Line-2-Copy-3" stroke-linecap="square"></path>
                        <path d="M10,16.6666667 L10,20" id="Line-2-Copy" stroke-linecap="square"></path>
                    </g>
                </g>
            </g>
            <g id="지도-내-핀" transform="translate(1.000000, 215.000000)" fill="#35719E" fill-rule="nonzero">
                <path d="M0,30.5202224 C0,36.4068481 1.72131148,41.8903131 4.71317372,46.5698566 L4.9113103,46.853029 C5.68899634,48.0433128 6.54098361,49.1856014 7.52671306,50.2750951 L31.4987616,82 L55.4732869,50.2750951 C56.4590164,49.1856014 57.3110037,48.0433128 58.0886897,46.853029 L58.2868263,46.5986538 C61.2786885,41.8903131 63,36.4068481 63,30.5202224 C63,13.6666667 48.892676,0 31.4987616,0 C14.107324,0 0,13.6666667 0,30.5202224 Z" id="Fill-1"></path>
            </g>
            <g id="검색결과없음" transform="translate(657.000000, 427.000000)">
                <path d="M67.0714728,83.5020991 L62.1329999,83.5020991 L59.3879087,49.3557019 L59.3879087,25.2054352 L69.816564,25.2054352 L69.816564,49.3557019 L67.0714728,83.5020991 Z M58.5094026,103.590477 L70.6950701,103.590477 L70.6950701,91.4048091 L58.5094026,91.4048091 L58.5094026,103.590477 Z" id="Fill-1" fill="#D0D0D0" fill-rule="nonzero"></path>
                <path d="M0.202742537,64.3989171 C0.202742537,28.831916 29.0358119,0.000768933112 64.6008907,0.000768933112 C100.167892,0.000768933112 128.999039,28.831916 128.999039,64.3989171 C128.999039,99.9639959 100.167892,128.797065 64.6008907,128.797065 C29.0358119,128.797065 0.202742537,99.9639959 0.202742537,64.3989171 Z" id="Stroke-2" stroke="#D0D0D0" stroke-width="7.68"></path>
            </g>
        </g>
    </g>
</svg>