<?xml version="1.0" encoding="UTF-8"?>
<svg width="204px" height="30px" viewBox="0 0 204 30" version="1.1" xmlns="http://www.w3.org/2000/svg" xmlns:xlink="http://www.w3.org/1999/xlink">
    <!-- Generator: Sketch 48.1 (47250) - http://www.bohemiancoding.com/sketch -->
    <title>logo</title>
    <desc>Created with Sketch.</desc>
    <defs>
        <polygon id="path-1" points="0 0.0588661417 53.8843137 0.0588661417 53.8843137 28 0 28"></polygon>
    </defs>
    <g id="Page-1" stroke="none" stroke-width="1" fill="none" fill-rule="evenodd">
        <g id="logo">
            <g id="Group-4">
                <g id="Page-1" transform="translate(1.000000, 1.000000)">
                    <g id="Group-3">
                        <mask id="mask-2" fill="white">
                            <use xlink:href="#path-1"></use>
                        </mask>
                        <g id="Clip-2"></g>
                        <path d="M26.9446282,28.0000882 C41.8220637,28.0000882 53.8843137,21.7450646 53.8843137,14.0320567 C53.8843137,6.30868661 41.8220637,0.0587338583 26.9446282,0.0587338583 C12.0674105,0.0587338583 -6.53225806e-05,6.30868661 -6.53225806e-05,14.0320567 C-6.53225806e-05,21.7450646 12.0674105,28.0000882 26.9446282,28.0000882 M32.0147492,21.1475843 C31.5657653,22.2025449 30.7938702,24.4553323 29.0129589,25.3515528 C28.4781847,25.617222 27.8123298,25.7525921 27.2122331,25.7656 C27.0809347,25.7728756 26.9849105,25.7704504 26.9496363,25.7704504 C21.9755395,25.7704504 17.3493944,25.0730961 13.4698863,23.8781354 C13.4396202,23.865348 13.3538298,23.8291906 13.323346,23.8192693 C12.9653782,23.6966866 12.7837815,23.5330961 12.7837815,23.3262929 C12.7837815,23.1450646 12.8745798,23.0096945 13.0056605,22.8846866 C13.0561766,22.8280252 13.1417492,22.7541669 13.2480073,22.6646551 C14.1407492,21.9064504 16.8398782,19.9318992 21.9150073,17.9650646 C23.6957008,17.2756472 25.925596,16.417348 28.2512976,15.9170961 C29.6182815,15.625852 34.6886202,14.8442772 32.0147492,21.1475843 M45.6308056,7.0591748 C45.721604,6.89051339 45.8526847,6.74764724 46.0797895,6.73243465 C46.2058621,6.72714331 46.3774427,6.75800945 46.6450476,6.91873386 C49.8029589,8.89306457 51.6846847,11.3553008 51.6846847,14.0267654 C51.6846847,18.8462929 45.5602573,22.9841197 36.8174831,24.7948598 C36.2524427,24.9022299 35.8840234,24.9022299 35.7529427,24.7591433 C35.6673702,24.6669858 35.6471202,24.5166236 35.7529427,24.3274583 C35.8084669,24.2280252 35.8740073,24.1382929 35.9850556,24.0031433 C40.7525153,18.3149543 44.3796605,9.92222992 45.4087089,7.50364724 C45.4894911,7.33256063 45.5652653,7.16941102 45.6308056,7.0591748 M21.9502815,6.88059213 C22.3992653,5.82805669 23.1761685,3.57328504 24.9520718,2.68169449 C25.4916363,2.40852913 26.1527008,2.28065512 26.7480073,2.26279685 C26.884096,2.26015118 26.9801202,2.26279685 27.0204024,2.26279685 C31.9894911,2.26279685 36.615854,2.96015118 40.4951444,4.15511181 C40.5254105,4.16834016 40.6162089,4.20383622 40.6414669,4.20912756 C40.9996524,4.33171024 41.1812492,4.50015118 41.1812492,4.70408819 C41.1812492,4.88818268 41.0904508,5.01848189 40.9643782,5.14900157 C40.903846,5.20522205 40.8280718,5.27643465 40.7170234,5.36859213 C39.8242815,6.12745827 37.1303782,8.09870236 32.0500234,10.0628913 C30.2693298,10.7551748 28.0444427,11.6106079 25.7137331,12.1139465 C24.3465315,12.4073953 19.2764105,13.1891906 21.9502815,6.88059213 M17.0667653,3.25624567 C17.6267976,3.14667087 18.000225,3.14887559 18.1313056,3.29174173 C18.2168782,3.38125354 18.2371282,3.53227717 18.1313056,3.72364724 C18.0707734,3.82308031 18.0102411,3.9128126 17.8991927,4.0479622 C13.1317331,9.73328504 9.5045879,18.125789 8.47031371,20.5474583 C8.39475726,20.7158992 8.313975,20.8821354 8.25344274,20.9890646 C8.16264435,21.1603717 8.03156371,21.3008126 7.80445887,21.3160252 C7.67838629,21.3213165 7.50680565,21.293537 7.23920081,21.1321512 C4.07628145,19.1551748 2.19956371,16.6982299 2.19956371,14.0267654 C2.19956371,9.2072378 8.31898306,5.0672063 17.0667653,3.25624567" id="Fill-1" fill="#003C83" mask="url(#mask-2)"></path>
                    </g>
                    <polygon id="Fill-4" fill="#003C83" points="78.28207 4 78.28207 11.6184901 69.7183679 11.6184901 69.7183679 4 65 4 65 24 69.7183679 24 69.7183679 15.95626 78.28207 15.95626 78.28207 24 83 24 83 4 82.7617605 4"></polygon>
                    <polygon id="Fill-6" fill="#003C83" points="100.435819 4 95.5052546 11.9206937 90.5694358 4 85 4 93.1463781 17.0749434 93.1463781 24 97.8641311 24 97.8641311 17.0749434 106 4 105.574597 4"></polygon>
                    <path d="M120.280531,4 L120.280531,18.6588612 C120.280531,19.2166565 119.869409,19.669741 119.280871,19.669741 L111.713994,19.669741 L111.713994,4 L107,4 L107,24 L120.940253,24 C122.183475,24 123.178097,23.6262219 123.909005,22.8992103 C124.629399,22.1649086 125,21.1588888 125,19.9127409 L125,4 L124.756218,4 L120.280531,4 Z" id="Fill-8" fill="#003C83"></path>
                    <path d="M143.950498,4 L130,4 L130,24 L134.719089,24 L134.719089,8.33025902 L142.290658,8.33025902 C142.895192,8.33025902 143.285292,8.811178 143.285292,9.33340697 L143.285292,24 L148,24 L148,8.09233998 C148,6.84066935 147.634651,5.8350914 146.914248,5.10542884 C146.183551,4.37112719 145.188917,4 143.950498,4" id="Fill-10" fill="#003C83"></path>
                    <path d="M166.945291,4 L153,4 L153,24 L166.945291,24 C168.188513,24 169.183135,23.6262219 169.909005,22.8992103 C170.634656,22.1673386 171,21.1641906 171,19.9127409 L171,8.09233998 C171,6.84066935 170.634656,5.8350914 169.903967,5.10542884 C169.178316,4.37112719 168.183694,4 166.945291,4 M166.280092,9.36919423 L166.280092,18.6358867 C166.280092,19.1731375 165.889998,19.669741 165.275615,19.669741 L157.719469,19.669741 L157.719469,8.33025902 L165.250426,8.33025902 C165.864152,8.33025902 166.280092,8.77030982 166.280092,9.36919423" id="Fill-12" fill="#003C83"></path>
                    <path d="M179.055795,4 C177.817498,4 176.817352,4.37112719 176.091726,5.10807975 C175.3707,5.84017231 175,6.84354117 175,8.09233998 L175,24 L179.715694,24 L179.715694,17.814326 L188.284087,17.814326 L188.284087,24 L193,24 L193,4 L192.76645,4 L179.055795,4 Z M188.284087,8.33025902 L188.284087,13.4816369 L179.715694,13.4816369 L179.715694,9.34864969 C179.715694,8.85491799 180.091434,8.33025902 180.715621,8.33025902 L188.284087,8.33025902 Z" id="Fill-14" fill="#003C83"></path>
                    <polygon id="Fill-16" fill="#003C83" points="201.7528 4 197 4 197 24 202 24 202 4"></polygon>
                </g>
            </g>
        </g>
    </g>
</svg>