<?xml version="1.0" encoding="UTF-8"?>
<svg width="122px" height="120px" viewBox="0 0 122 120" version="1.1" xmlns="http://www.w3.org/2000/svg" xmlns:xlink="http://www.w3.org/1999/xlink">
    <!-- Generator: Sketch 48.1 (47250) - http://www.bohemiancoding.com/sketch -->
    <title>logo_s</title>
    <desc>Created with Sketch.</desc>
    <defs>
        <polygon id="path-1" points="0 0.0863370079 78.4492214 0.0863370079 78.4492214 41.0666667 0 41.0666667"></polygon>
    </defs>
    <g id="Page-1" stroke="none" stroke-width="1" fill="none" fill-rule="evenodd">
        <g id="logo_s">
            <g id="Group-4" transform="translate(20.000000, 36.000000)">
                <g id="Page-1" transform="translate(1.455882, 1.466667)">
                    <g id="Group-3">
                        <mask id="mask-2" fill="white">
                            <use xlink:href="#path-1"></use>
                        </mask>
                        <g id="Clip-2"></g>
                        <path d="M39.2283038,40.980653 C60.8880996,40.980653 78.4493165,31.8066184 78.4493165,20.4942068 C78.4493165,9.16659738 60.8880996,0 39.2283038,0 C17.5688251,0 0,9.16659738 0,20.4942068 C0,31.8066184 17.5688251,40.980653 39.2283038,40.980653 M46.6098035,30.9303139 C45.9561358,32.4775895 44.8323472,35.7816777 42.2395499,37.0961344 C41.4609816,37.4857827 40.4915753,37.6843255 39.617905,37.7034037 C39.42675,37.7140745 39.2869501,37.7105176 39.235595,37.7105176 C31.9938953,37.7105176 25.2587722,36.6877312 19.6106648,34.9351223 C19.5666009,34.9163675 19.4417003,34.8633365 19.3973194,34.8487853 C18.8761605,34.6689974 18.6117769,34.4290646 18.6117769,34.1257533 C18.6117769,33.8599517 18.7439687,33.6614089 18.9348067,33.478064 C19.0083522,33.3949606 19.1329358,33.2866352 19.2876351,33.1553512 C20.5873623,32.0433176 24.5169766,29.1473092 31.9057674,26.2626184 C34.4982477,25.251473 37.7447128,23.9926341 41.1306607,23.2589312 C43.1208284,22.8317732 50.502645,21.6854635 46.6098035,30.9303139 M66.4331798,10.2673134 C66.5653716,10.0199433 66.7562096,9.8104063 67.0868475,9.78809449 C67.2703943,9.78033386 67.5201956,9.8256042 67.9097967,10.0613333 C72.507344,12.9570184 75.2469154,16.5682982 75.2469154,20.4864462 C75.2469154,27.5550866 66.3304696,33.6238992 53.602019,36.2796514 C52.7793867,36.4371276 52.2430115,36.4371276 52.0521735,36.2272672 C51.9275899,36.0921029 51.8981083,35.8715717 52.0521735,35.5941291 C52.1330102,35.448294 52.2284292,35.3166866 52.3901026,35.1184672 C59.330963,26.77579 64.6116596,14.4664609 66.109833,10.9192063 C66.2274425,10.6682793 66.3377608,10.4289932 66.4331798,10.2673134 M31.9571225,10.0053921 C32.6107902,8.46167349 33.7418699,5.15467507 36.3273761,3.84700892 C37.1129185,3.4463664 38.0753507,3.25881785 38.9420468,3.23262572 C39.140176,3.22874541 39.2799759,3.23262572 39.3386222,3.23262572 C46.5730307,3.23262572 53.3084708,4.25541207 58.9562611,6.008021 C59.0003251,6.02742257 59.1325168,6.07948346 59.1692896,6.08724409 C59.6907655,6.26703202 59.9551491,6.51407874 59.9551491,6.81318635 C59.9551491,7.0831916 59.8229573,7.27429711 59.6394105,7.46572598 C59.5512826,7.54818268 59.4409643,7.65262782 59.2792909,7.78779213 C57.9795637,8.9007958 54.0575575,11.7919538 46.6611586,14.6727643 C44.0686782,15.6881134 40.8295044,16.9427486 37.4362653,17.6809785 C35.4457806,18.1113701 28.064281,19.2580031 31.9571225,10.0053921 M24.8472976,4.68968399 C25.6626386,4.52897428 26.206305,4.53220787 26.397143,4.74174488 C26.5217266,4.87302887 26.5512083,5.09453018 26.397143,5.3752063 C26.3090152,5.52104147 26.2208873,5.65264882 26.0592139,5.85086824 C19.1183535,14.1893417 13.8376569,26.4983475 12.3318754,30.0501291 C12.2218741,30.2971759 12.1042646,30.540989 12.0161367,30.6978184 C11.883945,30.9490688 11.693107,31.1550488 11.362469,31.1773606 C11.1789222,31.1851213 10.929121,31.144378 10.5395198,30.9076787 C5.93468133,28.0081134 3.20240109,24.4045942 3.20240109,20.4864462 C3.20240109,13.4178058 12.1115557,7.34575958 24.8472976,4.68968399" id="Fill-1" fill="#003C83" mask="url(#mask-2)"></path>
                    </g>
                </g>
            </g>
        </g>
    </g>
</svg>