<?xml version="1.0" encoding="UTF-8" standalone="no"?>
<!-- Generator: Adobe Illustrator 21.0.2, SVG Export Plug-In . SVG Version: 6.00 Build 0)  -->

<svg
   xmlns:dc="http://purl.org/dc/elements/1.1/"
   xmlns:cc="http://creativecommons.org/ns#"
   xmlns:rdf="http://www.w3.org/1999/02/22-rdf-syntax-ns#"
   xmlns:svg="http://www.w3.org/2000/svg"
   xmlns="http://www.w3.org/2000/svg"
   xmlns:sodipodi="http://sodipodi.sourceforge.net/DTD/sodipodi-0.dtd"
   xmlns:inkscape="http://www.inkscape.org/namespaces/inkscape"
   version="1.1"
   id="Layer_1"
   x="0px"
   y="0px"
   viewBox="0 0 375.29999 73.900002"
   xml:space="preserve"
   sodipodi:docname="brontide-logo.svg"
   width="375.29999"
   height="73.900002"
   inkscape:version="0.92.2 5c3e80d, 2017-08-06"><metadata
     id="metadata65"><rdf:RDF><cc:Work
         rdf:about=""><dc:format>image/svg+xml</dc:format><dc:type
           rdf:resource="http://purl.org/dc/dcmitype/StillImage" /><dc:title></dc:title></cc:Work></rdf:RDF></metadata><defs
     id="defs63" /><sodipodi:namedview
     pagecolor="#ffffff"
     bordercolor="#666666"
     borderopacity="1"
     objecttolerance="10"
     gridtolerance="10"
     guidetolerance="10"
     inkscape:pageopacity="0"
     inkscape:pageshadow="2"
     inkscape:window-width="941"
     inkscape:window-height="562"
     id="namedview61"
     showgrid="false"
     inkscape:zoom="0.96527778"
     inkscape:cx="177.1"
     inkscape:cy="37.9"
     inkscape:window-x="0"
     inkscape:window-y="0"
     inkscape:window-maximized="0"
     inkscape:current-layer="Layer_1" /><style
     type="text/css"
     id="style2">
	.st0{fill:#373535;}
</style><g
     id="g58"
     transform="translate(-38.9,-36)"><g
       id="g6"><path
         class="st0"
         d="M 70.9,109.9 38.9,91.4 V 54.5 l 32,-18.5 32,18.5 V 91.4 Z M 42.2,89.5 70.8,106 99.4,89.5 v -33 L 70.9,39.9 42.2,56.5 Z"
         id="path4"
         inkscape:connector-curvature="0"
         style="fill:#373535" /></g><g
       id="g12"><path
         class="st0"
         d="m 71.4,90.5 c 0,2.7 0,5.4 0,8.2 -0.4,0 -0.7,0 -1.1,0 0,-2.7 0,-5.5 0,-8.2 -1,-0.2 -2,-0.2 -2.9,-0.5 C 61.5,88.6 57,83.8 56,77.8 55.4,74.2 56.1,70.7 58,67.6 62.1,61 66.2,54.4 70.3,47.8 c 0.4,-0.6 0.8,-0.6 1.2,0 4.1,6.6 8.1,13.2 12.2,19.8 1.5,2.5 2.3,5.2 2.3,8.1 -0.1,7.1 -5.4,13.4 -12.4,14.6 -0.7,0 -1.4,0.1 -2.2,0.2 z M 58.3,69.3 c -2.1,4.9 -1.9,9.6 1.1,14 2.6,3.8 6.3,5.7 10.9,5.9 0,-0.3 0,-0.4 0,-0.6 0,-1.6 0,-3.2 0,-4.7 0,-0.6 -0.2,-1 -0.5,-1.4 -3,-3.4 -6,-6.9 -9,-10.4 -0.8,-0.8 -1.6,-1.8 -2.5,-2.8 z m 13.1,20 C 76.2,89 79.9,87 82.5,83 c 2.8,-4.3 3,-8.8 0.9,-13.6 -0.1,0.2 -0.2,0.3 -0.3,0.4 -0.8,0.9 -1.6,1.8 -2.3,2.7 -3,3.5 -6,7 -9,10.5 -0.2,0.2 -0.3,0.5 -0.3,0.8 0,1.7 0,3.3 0,5 -0.1,0.1 -0.1,0.3 -0.1,0.5 z m 7.7,-26.9 c -0.1,0.1 -0.2,0.2 -0.3,0.3 -2.4,2.8 -4.8,5.7 -7.2,8.5 -0.1,0.2 -0.2,0.4 -0.2,0.6 0,3.1 0,6.2 0,9.2 0,0.1 0,0.3 0,0.4 0,0 0.1,0 0.1,0 C 75.3,77 79,72.7 82.8,68.3 81.6,66.4 80.4,64.4 79.1,62.4 Z M 62.7,62.2 c -1.2,2 -2.4,3.9 -3.6,5.8 -0.1,0.1 0,0.4 0.1,0.5 3.6,4.2 7.1,8.3 10.7,12.5 0.1,0.1 0.1,0.3 0.2,0.4 0.1,0 0.1,-0.1 0.2,-0.1 0,-0.1 0,-0.1 0,-0.2 0,-3.2 0,-6.3 0,-9.5 0,-0.2 -0.1,-0.5 -0.3,-0.6 -1.5,-1.7 -2.9,-3.5 -4.4,-5.2 -0.9,-1.2 -1.9,-2.4 -2.9,-3.6 z m 8.7,7.4 c 0.1,-0.1 0.2,-0.2 0.3,-0.3 2.2,-2.6 4.3,-5.1 6.5,-7.7 0.2,-0.3 0.2,-0.4 0.1,-0.7 -2.2,-3.5 -4.4,-7 -6.5,-10.5 -0.1,-0.1 -0.2,-0.2 -0.3,-0.4 -0.1,6.5 -0.1,13 -0.1,19.6 z m -1.1,-0.2 c 0,-6.5 0,-13 0,-19.5 -0.1,0.1 -0.1,0.1 -0.2,0.2 -2.2,3.6 -4.4,7.2 -6.6,10.8 -0.1,0.2 -0.1,0.3 0.1,0.5 1.2,1.4 2.4,2.9 3.7,4.4 0.9,1.2 1.9,2.4 3,3.6 z"
         id="path8"
         inkscape:connector-curvature="0"
         style="fill:#373535" /><path
         class="st0"
         d="m 72.2,99.4 h -2.6 v -8.3 c -0.1,0 -0.2,0 -0.3,0 C 68.6,91 68,90.9 67.3,90.8 61,89.3 56.3,84.3 55.3,78 c -0.6,-3.8 0.1,-7.4 2.1,-10.7 3.1,-5 6.2,-10 9.3,-15 l 3,-4.8 c 0.4,-0.7 0.9,-0.8 1.2,-0.8 0.3,0 0.8,0.1 1.2,0.8 l 12.2,19.8 c 1.6,2.6 2.4,5.5 2.4,8.5 -0.1,7.4 -5.6,14 -13,15.3 -0.5,0.1 -1,0.1 -1.5,0.2 v 0 z m 11,-28.5 -3.4,4 c -2.5,2.9 -5,5.8 -7.5,8.7 0,0 -0.1,0.2 -0.1,0.3 0,1.2 0,2.5 0,3.7 v 1 c 4.3,-0.5 7.5,-2.4 9.7,-5.9 2.3,-3.8 2.8,-7.7 1.3,-11.8 z M 58.6,70.7 c -1.6,4.4 -1.1,8.4 1.5,12.2 2.2,3.3 5.4,5.1 9.5,5.5 v -1.1 c 0,-1.1 0,-2.3 0,-3.4 0,-0.3 -0.1,-0.6 -0.3,-0.9 -2.2,-2.5 -4.4,-5.1 -6.6,-7.6 z m 11.8,11.4 c 0.2,0.3 0.4,0.5 0.5,0.8 0.1,-0.1 0.1,-0.3 0.2,-0.4 0.1,-0.1 0.2,-0.2 0.3,-0.3 L 70.8,82 v -0.1 z m 1.8,-10.4 c 0,0 0,0.1 0,0.1 0,2.5 0,5 0,7.5 v 0.3 L 81.9,68.3 79,63.6 78.4,64.3 c -2,2.4 -4.1,4.9 -6.2,7.4 0,0 0,0 0,0 z M 59.9,68.2 c 2.2,2.5 4.4,5.1 6.6,7.6 l 3.1,3.6 v -0.1 c 0,-2.6 0,-5.2 0,-7.8 0,0 0,-0.1 -0.1,-0.2 -1.2,-1.5 -2.5,-2.9 -3.7,-4.4 l -3,-3.5 -0.1,0.2 c -1,1.6 -1.9,3.1 -2.8,4.6 z M 72.2,52.5 v 15.1 l 0.6,-0.7 C 74.4,65 76,63.1 77.6,61.2 75.9,58.5 74.3,55.9 72.7,53.3 Z m -7.9,8.6 c 0.8,0.9 1.5,1.8 2.3,2.7 l 3,3.6 V 52.5 L 69.2,53 c -1.6,2.7 -3.3,5.4 -4.9,8.1 z"
         id="path10"
         inkscape:connector-curvature="0"
         style="fill:#373535" /></g><g
       id="g46"><g
         id="g16"><path
           class="st0"
           d="m 131.5,60.7 h 12.4 c 5.5,0 8.5,2.5 8.5,6.9 0,2.8 -2.1,4.6 -4.1,5.2 2.5,0.7 4.6,2.8 4.6,6 0,4.5 -2.9,7.3 -8.8,7.3 H 131.4 V 60.7 Z m 3.4,3.2 v 7.5 h 8.9 c 3.3,0 5,-1.3 5,-3.8 0,-2.5 -1.7,-3.8 -5,-3.8 h -8.9 z m 0,10.6 v 8.3 h 9.2 c 3.7,0 5.4,-1.6 5.4,-4.2 0,-2.7 -1.7,-4.1 -5.4,-4.1 z"
           id="path14"
           inkscape:connector-curvature="0"
           style="fill:#373535" /></g><g
         id="g20"><path
           class="st0"
           d="m 167.6,60.7 h 13.5 c 5.5,0 8.4,2.4 8.4,7.2 0,3.4 -1.8,5.7 -5.2,6.5 l 6.1,11.7 h -3.7 L 180.6,74.8 H 171 v 11.3 h -3.5 V 60.7 Z m 3.5,3.2 v 7.7 h 9.9 c 3.3,0 4.9,-1.1 4.9,-3.7 0,-2.8 -1.6,-4 -4.9,-4 z"
           id="path18"
           inkscape:connector-curvature="0"
           style="fill:#373535" /></g><g
         id="g24"><path
           class="st0"
           d="m 202.9,73.4 c 0,-7.4 5.6,-13.1 13.1,-13.1 7.5,0 13.1,5.7 13.1,13.1 0,7.4 -5.6,13.1 -13.1,13.1 -7.5,0 -13.1,-5.7 -13.1,-13.1 z m 22.7,0 c 0,-5.4 -3.8,-9.9 -9.5,-9.9 -5.7,0 -9.5,4.5 -9.5,9.9 0,5.5 3.8,9.9 9.5,9.9 5.7,0 9.5,-4.5 9.5,-9.9 z"
           id="path22"
           inkscape:connector-curvature="0"
           style="fill:#373535" /></g><g
         id="g28"><path
           class="st0"
           d="M 266.5,86.2 H 264 L 247,64.7 V 86 h -3.3 V 60.7 h 4.2 l 15.3,19.4 V 60.7 h 3.3 z"
           id="path26"
           inkscape:connector-curvature="0"
           style="fill:#373535" /></g><g
         id="g32"><path
           class="st0"
           d="m 280,60.7 h 24.6 v 3.2 H 294 v 22.2 h -3.5 V 63.9 H 280 Z"
           id="path30"
           inkscape:connector-curvature="0"
           style="fill:#373535" /></g><g
         id="g36"><path
           class="st0"
           d="m 318,60.7 h 3.5 V 86.1 H 318 Z"
           id="path34"
           inkscape:connector-curvature="0"
           style="fill:#373535" /></g><g
         id="g40"><path
           class="st0"
           d="m 337.5,60.7 h 10 c 8.2,0 13.3,5 13.3,12.7 0,7.6 -5.1,12.7 -13.3,12.7 h -10 z m 3.4,3.2 v 19 h 6.5 c 6,0 9.7,-3.7 9.7,-9.5 0,-6 -3.7,-9.5 -9.7,-9.5 z"
           id="path38"
           inkscape:connector-curvature="0"
           style="fill:#373535" /></g><g
         id="g44"><path
           class="st0"
           d="m 375.3,60.7 h 19.9 v 3.2 H 378.8 V 71 h 9.8 v 3.2 h -9.8 v 8.7 h 17.9 v 3.2 H 375.4 V 60.7 Z"
           id="path42"
           inkscape:connector-curvature="0"
           style="fill:#373535" /></g></g><g
       id="g56"><g
         id="g50"><path
           class="st0"
           d="m 402.6,60.7 h 4.9 v 0.6 h -2.1 v 4.4 h -0.7 v -4.4 h -2.1 z"
           id="path48"
           inkscape:connector-curvature="0"
           style="fill:#373535" /></g><g
         id="g54"><path
           class="st0"
           d="m 411.4,64.8 1.8,-4.1 h 1 v 5.1 h -0.7 v -4.5 l -1.9,4.5 h -0.5 l -1.9,-4.5 v 4.4 h -0.6 v -5.1 h 1.1 z"
           id="path52"
           inkscape:connector-curvature="0"
           style="fill:#373535" /></g></g></g></svg>