<?xml version="1.0" encoding="UTF-8" standalone="no"?>
<svg
   xmlns:dc="http://purl.org/dc/elements/1.1/"
   xmlns:cc="http://creativecommons.org/ns#"
   xmlns:rdf="http://www.w3.org/1999/02/22-rdf-syntax-ns#"
   xmlns:svg="http://www.w3.org/2000/svg"
   xmlns="http://www.w3.org/2000/svg"
   xmlns:sodipodi="http://sodipodi.sourceforge.net/DTD/sodipodi-0.dtd"
   xmlns:inkscape="http://www.inkscape.org/namespaces/inkscape"
   width="356.813pt"
   height="74.8271pt"
   viewBox="0 0 356.813 74.8271"
   version="1.2"
   id="svg45"
   sodipodi:docname="genomatica-home.svg"
   inkscape:version="0.92.2 5c3e80d, 2017-08-06">
  <metadata
     id="metadata49">
    <rdf:RDF>
      <cc:Work
         rdf:about="">
        <dc:format>image/svg+xml</dc:format>
        <dc:type
           rdf:resource="http://purl.org/dc/dcmitype/StillImage" />
        <dc:title></dc:title>
      </cc:Work>
    </rdf:RDF>
  </metadata>
  <sodipodi:namedview
     pagecolor="#ffffff"
     bordercolor="#666666"
     borderopacity="1"
     objecttolerance="10"
     gridtolerance="10"
     guidetolerance="10"
     inkscape:pageopacity="0"
     inkscape:pageshadow="2"
     inkscape:window-width="1449"
     inkscape:window-height="792"
     id="namedview47"
     showgrid="false"
     inkscape:zoom="0.87650957"
     inkscape:cx="237.87533"
     inkscape:cy="49.884735"
     inkscape:window-x="0"
     inkscape:window-y="0"
     inkscape:window-maximized="0"
     inkscape:current-layer="surface799" />
  <defs
     id="defs8">
    <clipPath
       id="clip1">
      <path
         d="M 329 21 L 356.8125 21 L 356.8125 48 L 329 48 Z M 329 21 "
         id="path2" />
    </clipPath>
    <clipPath
       id="clip2">
      <path
         d="M 12 20 L 60 20 L 60 74.828125 L 12 74.828125 Z M 12 20 "
         id="path5" />
    </clipPath>
  </defs>
  <g
     id="surface799">
    <path
       style="fill:#000000;fill-opacity:1;fill-rule:nonzero;stroke:none"
       d="m 87.699219,34.605469 c 0,4.398437 3.160156,7.742187 7.511719,7.742187 2.246093,0 4.03125,-0.78125 5.359372,-2.152344 1.32813,-1.328124 2.10547,-3.207031 2.15235,-5.359374 0,-1.925782 -0.59766,-3.941407 -1.83203,-5.40625 -1.191411,-1.507813 -3.070318,-2.515626 -5.679692,-2.515626 -4.074219,0 -7.511719,3.160157 -7.511719,7.644532 z m 21.023441,9.617187 c 0,4.121094 -0.78125,6.777344 -2.33594,8.886719 -2.15234,2.882813 -6.36719,5.171875 -11.54297,5.171875 -7.828125,0 -11.585938,-4.667969 -12.5,-8.5625 h 6.960938 c 0.546874,1.144531 1.507812,2.015625 2.609374,2.566406 1.234376,0.683594 2.5625,0.867188 3.296876,0.867188 3.570312,0 7.464842,-2.472656 7.464842,-7.554688 v -2.105468 c -1.23828,2.242187 -3.89453,4.488281 -8.152342,4.488281 -7.234376,0 -12.820313,-5.496094 -12.820313,-13.238281 0,-8.195313 5.859375,-13.417969 12.820313,-13.417969 3.617187,0 6.734372,1.648437 8.152342,4.121093 v -3.386718 h 6.04688 z m 0,0"
       id="path10"
       inkscape:connector-curvature="0" />
    <path
       style="fill:#000000;fill-opacity:1;fill-rule:nonzero;stroke:none"
       d="m 132.85547,32.042969 c -0.22656,-2.382813 -2.7461,-5.726563 -7.14063,-5.679688 -4.44531,0 -6.87109,3.207031 -7.09765,5.679688 z m -14.33203,4.578125 c 0.27344,4.03125 3.84765,6.273437 7.28125,6.230468 2.92968,0 4.90234,-1.328124 6.04297,-3.390624 h 6.18359 c -1.19141,2.792968 -2.97656,4.898437 -5.08203,6.320312 -2.10938,1.464844 -4.57813,2.199219 -7.19141,2.199219 -7.73828,0 -13.28125,-6.277344 -13.28125,-13.28125 0,-7.144531 5.58985,-13.417969 13.19141,-13.417969 3.7539,0 7.05078,1.417969 9.38672,3.84375 3.07031,3.160156 4.21484,7.101562 3.71093,11.496094 z m 0,0"
       id="path12"
       inkscape:connector-curvature="0" />
    <path
       style="fill:#000000;fill-opacity:1;fill-rule:nonzero;stroke:none"
       d="m 142.89062,22.058594 h 5.63282 c 0,1.097656 0,2.152344 -0.0469,3.34375 1.09766,-1.96875 3.34375,-4.167969 7.83203,-4.121094 8.19532,0.04297 9.75391,6.316406 9.75391,10.761719 v 15.15625 h -6 V 33.554688 c 0,-3.757813 -1.23438,-6.644532 -5.44922,-6.644532 -4.25781,0.04687 -5.72656,2.886719 -5.72656,6.414063 v 13.875 h -5.9961 z m 0,0"
       id="path14"
       inkscape:connector-curvature="0" />
    <path
       style="fill:#000000;fill-opacity:1;fill-rule:nonzero;stroke:none"
       d="m 176.13672,34.652344 c 0,4.394531 3.34375,7.648437 7.46484,7.648437 4.125,0 7.42188,-3.253906 7.42188,-7.695312 0,-4.441407 -3.29688,-7.691407 -7.42188,-7.691407 -4.12109,0 -7.46484,3.25 -7.46484,7.691407 z m -5.9961,-0.09375 c 0,-6.410156 4.71485,-13.234375 13.46094,-13.234375 8.75,0 13.46485,6.824219 13.46485,13.28125 0,6.503906 -4.71485,13.328125 -13.46485,13.328125 -8.74609,0 -13.46094,-6.824219 -13.46094,-13.328125 z m 0,0"
       id="path16"
       inkscape:connector-curvature="0" />
    <path
       style="fill:#000000;fill-opacity:1;fill-rule:nonzero;stroke:none"
       d="m 200.77734,22.058594 h 5.63282 v 3.160156 c 0.55078,-1.144531 2.97656,-3.9375 7.32812,-3.9375 2.0625,0 4.35156,0.59375 6.18359,2.5625 0.54688,0.597656 1.1875,1.648438 1.50782,2.289062 0.46093,-0.777343 1.00781,-1.601562 1.83203,-2.378906 1.55859,-1.46875 3.75781,-2.472656 6.41406,-2.472656 2.10547,0 4.76172,0.546875 6.68359,2.515625 2.28907,2.382813 2.75,4.445313 2.75,9.617187 v 13.785157 h -6 V 33.644531 c 0,-1.601562 -0.13671,-3.34375 -1.00781,-4.671875 -0.64062,-1.234375 -1.83203,-2.0625 -3.9375,-2.0625 -2.10547,0 -3.57031,0.917969 -4.35156,2.292969 -0.77734,1.371094 -0.87109,2.699219 -0.87109,4.210937 v 13.785157 h -5.9961 V 33.414062 c 0,-1.464843 -0.14062,-2.882812 -0.78125,-4.164062 -0.73047,-1.328125 -1.96875,-2.292969 -4.12109,-2.339844 -2.19922,0 -3.57031,1.054688 -4.30469,2.339844 -0.73047,1.324219 -0.96094,2.882812 -0.96094,4.347656 v 13.601563 h -6 z m 0,0"
       id="path18"
       inkscape:connector-curvature="0" />
    <path
       style="fill:#000000;fill-opacity:1;fill-rule:nonzero;stroke:none"
       d="m 248.68359,34.742188 c 0,3.117187 2.24219,7.648437 7.64844,7.648437 3.34375,0 5.53906,-1.738281 6.6875,-4.027344 0.59375,-1.101562 0.86719,-2.292969 0.96094,-3.527343 0.0469,-1.191407 -0.1836,-2.425782 -0.6875,-3.527344 -1.05469,-2.382813 -3.38672,-4.441406 -7.00781,-4.441406 -4.85547,0 -7.60157,3.9375 -7.60157,7.832031 z m 21.25,12.457031 h -6 v -3.617188 c -1.60547,2.929688 -4.94531,4.398438 -8.47265,4.398438 -8.0586,0 -12.77735,-6.277344 -12.77735,-13.375 0,-7.921875 5.72657,-13.324219 12.77735,-13.324219 4.57812,0 7.37109,2.425781 8.47265,4.441406 v -3.664062 h 6 z m 0,0"
       id="path20"
       inkscape:connector-curvature="0" />
    <path
       style="fill:#000000;fill-opacity:1;fill-rule:nonzero;stroke:none"
       d="m 277.07812,26.683594 h -4.16796 v -4.625 h 4.16796 V 13.3125 h 6 v 8.746094 h 4.30469 v 4.625 h -4.30469 v 20.515625 h -6 z m 0,0"
       id="path22"
       inkscape:connector-curvature="0" />
    <path
       style="fill:#000000;fill-opacity:1;fill-rule:nonzero;stroke:none"
       d="m 290.40625,22.058594 h 6 v 25.140625 h -6 z m 0,-8.746094 h 6 v 5.355469 h -6 z m 0,0"
       id="path24"
       inkscape:connector-curvature="0" />
    <path
       style="fill:#000000;fill-opacity:1;fill-rule:nonzero;stroke:none"
       d="m 326.85937,38.042969 c -1.41796,5.585937 -6.41015,9.9375 -12.91406,9.9375 -7.96875,0 -13.46484,-6.183594 -13.46484,-13.375 0,-7.417969 5.72656,-13.324219 13.23828,-13.324219 6.32031,0 11.67578,3.984375 13.14062,10.121094 h -6.13671 c -1.05079,-2.65625 -3.48047,-4.535156 -6.77735,-4.535156 -2.19531,-0.04688 -3.89062,0.730468 -5.35547,2.152343 -1.28515,1.375 -2.0625,3.390625 -2.0625,5.585938 0,4.535156 3.16016,7.742187 7.41797,7.742187 3.75781,0 5.86328,-2.246094 6.77735,-4.304687 z m 0,0"
       id="path26"
       inkscape:connector-curvature="0" />
    <g
       clip-path="url(#clip1)"
       id="g30"
       style="clip-rule:nonzero">
      <path
         style="fill:#000000;fill-opacity:1;fill-rule:nonzero;stroke:none"
         d="m 335.5625,34.742188 c 0,3.117187 2.24609,7.648437 7.64844,7.648437 3.34375,0 5.54297,-1.738281 6.6875,-4.027344 0.59765,-1.101562 0.87109,-2.292969 0.96093,-3.527343 0.0469,-1.191407 -0.18359,-2.425782 -0.6875,-3.527344 -1.05078,-2.382813 -3.38671,-4.441406 -7.0039,-4.441406 -4.85547,0 -7.60547,3.9375 -7.60547,7.832031 z m 21.25,12.457031 h -5.99609 v -3.617188 c -1.60547,2.929688 -4.94922,4.398438 -8.47657,4.398438 -8.05859,0 -12.77343,-6.277344 -12.77343,-13.375 0,-7.921875 5.72265,-13.324219 12.77343,-13.324219 4.58203,0 7.375,2.425781 8.47657,4.441406 v -3.664062 h 5.99609 z m 0,0"
         id="path28"
         inkscape:connector-curvature="0" />
    </g>
    <path
       style="fill:#a11782;fill-opacity:1;fill-rule:nonzero;stroke:none"
       d="M 5.214844,16.558594 5.207031,37.648438 11.75,41.425781 23.472656,48.195312 41.738281,37.652344 41.742188,16.5625 23.480469,6.015625 Z M 0,40.65625 0.00390625,13.550781 22.179688,0.75 23.480469,0 46.953125,13.554688 46.945312,40.660156 23.472656,54.210938 Z m 0,0"
       id="path32"
       inkscape:connector-curvature="0" />
    <path
       style="fill:#abb0b0;fill-opacity:1;fill-rule:nonzero;stroke:none"
       d="m 28.835938,16.558594 -0.0078,21.089844 6.542969,3.777343 L 47.09375,48.195312 65.359375,37.652344 65.363281,16.5625 47.097656,6.015625 Z M 23.621094,40.65625 23.625,13.550781 45.796875,0.75 47.101562,0 70.570312,13.554688 70.566406,40.660156 47.09375,54.210938 Z m 0,0"
       id="path34"
       inkscape:connector-curvature="0" />
    <g
       clip-path="url(#clip2)"
       id="g38"
       style="clip-rule:nonzero">
      <path
         style="fill:#632b87;fill-opacity:1;fill-rule:nonzero;stroke:none"
         d="m 17.367188,37.171875 -0.0039,21.09375 L 35.625,68.8125 53.894531,58.269531 V 37.179688 L 35.632812,26.628906 Z m -5.214844,24.097656 0.0039,-27.105469 22.175781,-12.796874 1.300781,-0.75 23.472657,13.554687 -0.0039,27.105469 L 35.625,74.828125 Z m 0,0"
         id="path36"
         inkscape:connector-curvature="0" />
    </g>
    <path
       style="fill:#a12185;fill-opacity:1;fill-rule:nonzero;stroke:none"
       d="M 46.902344,33.054688 H 41.738281 V 22.722656 h 5.164063 z m 0,0"
       id="path40"
       inkscape:connector-curvature="0" />
    <path
       style="fill:#a12185;fill-opacity:1;fill-rule:nonzero;stroke:none"
       d="m 18.980469,45.605469 -7.78125,-4.5 -0.476563,5.714843 7.519532,4.320313"
       id="path42"
       inkscape:connector-curvature="0" />
  </g>
</svg>
