<svg version="1" xmlns="http://www.w3.org/2000/svg" width="461.333" height="461.333" viewBox="0 0 346.000000 346.000000"><path d="M97.5 43l-74 42.8v174.4l74.3 42.9c40.9 23.6 74.7 42.9 75.2 42.9s34.3-19.3 75.2-42.9l74.3-42.9V85.8l-74.3-42.9C207.3 19.3 173.3 0 172.7.1c-.7 0-34.5 19.3-75.2 42.9zm142 14.4l66 38.5.2 77.3.3 77.3-66.1 38c-36.4 20.9-66.7 38-67.4 38-.7 0-31-17.1-67.3-38l-66.1-38 .2-77.3.2-77.3L106 57.5C142.6 36.3 172.7 19 173 19c.3 0 30.2 17.3 66.5 38.4z"/><path d="M168.3 52.2c-2.8 3.2-58.7 93.5-62.3 100.7-10 20.2-9.7 45.5 1 66 8.7 16.7 22.8 29 41 35.5 3.9 1.4 9.6 2.9 12.6 3.2l5.4.7V297h14v-38h2.3c1.2 0 5.6-.9 9.7-2.1 21.2-5.8 37.7-19.4 47.7-39.3 9.9-19.7 9.9-44.9 0-64.6-4-7.9-59.2-97.6-62-100.8-1.2-1.2-3.2-2.2-4.7-2.2s-3.5 1-4.7 2.2zm-2.3 60.3V145l-11.5-13.5c-6.3-7.4-11.5-13.8-11.5-14.1 0-.8 22.2-37.4 22.7-37.4.1 0 .3 14.6.3 32.5zm27.8-10.7l10.1 16.2-5.7 6.8c-3.2 3.7-8.6 10-12 14l-6.2 7.3v-33.3c0-32.7 0-33.2 1.8-30.3 1.1 1.6 6.4 10.3 12 19.3zm-34.5 55.6l6.7 7.9v18.1c0 10.6-.4 17.6-.9 17-.5-.5-10.4-11.9-22-25.3-19.6-22.7-21-24.6-19.8-26.5.7-1.2 3.7-6 6.6-10.8l5.2-8.8 8.8 10.3c4.8 5.6 11.7 13.8 15.4 18.1zm58.2-16.9l6.6 10.6-21.8 25.4-21.8 25.5-.3-17.6-.2-17.6 15.2-18.3c8.4-10.1 15.4-18.4 15.5-18.4.1-.1 3.1 4.6 6.8 10.4zm-76.6 51.9l25.1 28.9v23.6l-3.2-.5c-22.8-4-38.2-16.7-47.6-39.6-3.5-8.5-4.3-24.4-1.7-34.8 1-3.9 1.9-7 2-6.8.2.2 11.6 13.3 25.4 29.2zm92.8-10.4c1.7 29.3-18.9 56.7-46.8 62.4l-6.4 1.3-.3-11.4-.3-11.3 19.3-22.3c10.6-12.2 22-25.5 25.3-29.4l6-7.2 1.3 4.2c.8 2.3 1.6 8.5 1.9 13.7z"/></svg>